<svg width="36" height="44" viewBox="0 0 36 44" fill="none" xmlns="http://www.w3.org/2000/svg">
<path d="M13 2.11621V3.61621C13 5.03021 13 5.73721 13.44 6.17621C13.878 6.61621 14.585 6.61621 16 6.61621H17.5" stroke="#1C1C1C" stroke-width="1.5" stroke-linecap="round" stroke-linejoin="round"/>
<path d="M10 19.6162H26M10 25.6162H26M10 31.6162H18.34M2 29.6162V13.6162C2 7.96021 2 5.13021 3.758 3.37421C5.514 1.61621 8.344 1.61621 14 1.61621H22.344C23.16 1.61621 23.57 1.61621 23.938 1.76821C24.304 1.92021 24.594 2.20821 25.172 2.78821L32.828 10.4442C33.408 11.0242 33.696 11.3122 33.848 11.6802C34 12.0462 34 12.4562 34 13.2722V29.6162C34 35.2722 34 38.1022 32.242 39.8582C30.486 41.6162 27.656 41.6162 22 41.6162H14C8.344 41.6162 5.514 41.6162 3.758 39.8582C2 38.1022 2 35.2722 2 29.6162Z" stroke="#1C1C1C" stroke-width="3" stroke-linecap="round" stroke-linejoin="round"/>
<path d="M10 19.6162H26M10 25.6162H26M10 31.6162H18.34" stroke="#F1B82D" stroke-width="3" stroke-linecap="round" stroke-linejoin="round"/>
</svg>
