<svg width="18" height="20" viewBox="0 0 18 20" fill="none" xmlns="http://www.w3.org/2000/svg">
<path d="M13.903 6.63409L14.2966 6.23969C14.6099 5.92623 15.035 5.75008 15.4782 5.75C15.9214 5.74992 16.3465 5.92592 16.66 6.23927C16.9735 6.55262 17.1496 6.97767 17.1497 7.42089C17.1498 7.86412 16.9738 8.28923 16.6604 8.60269L16.2669 8.99709M13.903 6.63409C13.903 6.63409 13.9523 7.47049 14.691 8.20914C15.4296 8.94779 16.2669 8.99709 16.2669 8.99709M13.903 6.63409L10.282 10.2551C10.0355 10.4999 9.91313 10.6231 9.80773 10.7583C9.68363 10.9181 9.57738 11.0898 9.48983 11.2734C9.41588 11.4281 9.36148 11.5921 9.25183 11.9211L8.90078 12.9751L8.78688 13.3159M16.2669 8.99709L12.6459 12.6181C12.3994 12.8646 12.277 12.987 12.1418 13.0924C11.982 13.2165 11.8103 13.3227 11.6267 13.4103C11.472 13.4842 11.308 13.5386 10.979 13.6483L9.92503 13.9993L9.58418 14.1132M8.78688 13.3159L8.67383 13.6576C8.64749 13.737 8.64374 13.822 8.66299 13.9034C8.68224 13.9847 8.72373 14.059 8.78283 14.1181C8.84192 14.1772 8.91629 14.2187 8.99761 14.238C9.07894 14.2572 9.16401 14.2535 9.24333 14.2271L9.58418 14.1132M8.78688 13.3159L9.58418 14.1132" stroke="#202224" stroke-width="1.3"/>
<path d="M5.25 10.85H7.375M5.25 7.45H10.775M5.25 14.25H6.525M15.3038 2.4962C14.3084 1.5 12.7054 1.5 9.5 1.5H7.8C4.59465 1.5 2.99155 1.5 1.9962 2.4962C1 3.49155 1 5.09465 1 8.3V11.7C1 14.9054 1 16.5084 1.9962 17.5038C2.99155 18.5 4.59465 18.5 7.8 18.5H9.5C12.7054 18.5 14.3084 18.5 15.3038 17.5038C16.1062 16.7022 16.2617 15.508 16.2923 13.4" stroke="#202224" stroke-width="1.3" stroke-linecap="round"/>
</svg>
