<svg width="44" height="44" viewBox="0 0 44 44" fill="none" xmlns="http://www.w3.org/2000/svg">
<path d="M9.05878 11.3232H6.70585C5.45778 11.3232 4.26083 11.819 3.37831 12.7016C2.49579 13.5841 2 14.781 2 16.0291V37.2054C2 38.4535 2.49579 39.6505 3.37831 40.533C4.26083 41.4155 5.45778 41.9113 6.70585 41.9113H27.8822C29.1303 41.9113 30.3272 41.4155 31.2097 40.533C32.0922 39.6505 32.588 38.4535 32.588 37.2054V34.8525" stroke="#1C1C1C" stroke-width="3" stroke-linecap="round" stroke-linejoin="round"/>
<path d="M30.2351 6.61724L37.2939 13.676M40.5527 10.3466C41.4794 9.41993 42 8.16307 42 6.85253C42 5.54199 41.4794 4.28513 40.5527 3.35843C39.626 2.43174 38.3692 1.91113 37.0586 1.91113C35.7481 1.91113 34.4912 2.43174 33.5645 3.35843L13.7646 23.0877V30.1465H20.8234L40.5527 10.3466Z" stroke="#F1B82D" stroke-width="3" stroke-linecap="round" stroke-linejoin="round"/>
</svg>
