<svg width="35" height="36" viewBox="0 0 35 36" fill="none" xmlns="http://www.w3.org/2000/svg">
<g clip-path="url(#clip0_1700_173)">
<path d="M17.5 0.773438C22.3316 0.773438 26.7066 2.73262 29.8737 5.89971C33.0408 9.06611 35 13.4418 35 18.2734C35 23.1051 33.0408 27.4808 29.8737 30.6472C26.7073 33.8143 22.3316 35.7734 17.5 35.7734C12.6684 35.7734 8.29268 33.8143 5.12627 30.6472C1.95918 27.4801 0 23.1051 0 18.2734C0 13.4418 1.95918 9.06611 5.12627 5.89971C8.29268 2.73262 12.6684 0.773438 17.5 0.773438ZM19.7511 15.4939C19.7066 14.9936 19.5057 14.6087 19.1495 14.3284C18.9021 14.135 18.5801 14.0078 18.1843 13.949V16.8495L18.9041 17.0122C19.5884 17.1619 20.1968 17.3595 20.7252 17.6083C21.2509 17.8564 21.6932 18.1559 22.0527 18.499C22.413 18.8401 22.6864 19.238 22.871 19.6837C23.0556 20.1328 23.1513 20.6359 23.1574 21.1896C23.1513 22.0688 22.9284 22.82 22.4923 23.4503C22.0527 24.0778 21.4225 24.5618 20.6015 24.8961C19.9158 25.1764 19.1099 25.3377 18.1843 25.3828V26.9558H17.07V25.3821C16.141 25.3343 15.3166 25.1661 14.5961 24.8735C13.73 24.5263 13.0587 23.9979 12.5809 23.2883C12.1003 22.578 11.8549 21.6805 11.8419 20.5949H15.0582C15.0835 21.0399 15.2045 21.4159 15.4144 21.7119C15.6276 22.0113 15.9209 22.2369 16.2935 22.39C16.53 22.4885 16.7884 22.5548 17.07 22.591V19.5299L16.0733 19.2981C14.8702 19.022 13.9248 18.5756 13.2303 17.9583C12.5392 17.3403 12.196 16.5063 12.1987 15.4522C12.196 14.593 12.4277 13.8383 12.8933 13.1916C13.3581 12.5456 14.0007 12.0425 14.8258 11.6795C15.4984 11.3855 16.2456 11.2105 17.07 11.1565V9.59111H18.1843V11.1538C19.0347 11.2058 19.7894 11.3821 20.4449 11.6829C21.2413 12.0486 21.8559 12.5586 22.2954 13.2142C22.7343 13.8704 22.9571 14.6278 22.9667 15.4939H19.7511ZM17.07 13.949C16.8759 13.9771 16.7016 14.0208 16.5478 14.0803C16.2579 14.1944 16.0419 14.351 15.8983 14.5451C15.7521 14.742 15.6789 14.9683 15.6721 15.2198C15.6659 15.4304 15.7076 15.6115 15.7999 15.7708C15.8922 15.9301 16.0289 16.0668 16.2073 16.1878C16.3857 16.3088 16.6024 16.4141 16.8533 16.5029C16.9237 16.5275 16.9955 16.5515 17.07 16.5747V13.949ZM18.1843 22.5828C18.3914 22.5521 18.5801 22.5035 18.751 22.4379C19.0695 22.3169 19.3149 22.148 19.4865 21.932C19.6588 21.7119 19.7477 21.4638 19.7511 21.1835C19.7477 20.9224 19.6649 20.6968 19.5057 20.5081C19.3464 20.3208 19.1044 20.1581 18.777 20.0214C18.604 19.9476 18.4064 19.8778 18.1843 19.8102V22.5828ZM28.2379 7.53486C25.4905 4.7875 21.6932 3.0874 17.5 3.0874C13.3062 3.0874 9.50947 4.7875 6.76143 7.53486C4.01406 10.2829 2.31396 14.0796 2.31396 18.2734C2.31396 22.4666 4.01406 26.264 6.76143 29.0113C9.50947 31.7594 13.3062 33.4588 17.5 33.4588C21.6938 33.4588 25.4905 31.7594 28.2379 29.0113C30.9859 26.264 32.6854 22.4673 32.6854 18.2734C32.6854 14.0796 30.9859 10.2829 28.2379 7.53486Z" fill="#AE4603"/>
</g>
<defs>
<clipPath id="clip0_1700_173">
<rect width="35" height="35" fill="white" transform="translate(0 0.773438)"/>
</clipPath>
</defs>
</svg>
