<svg width="19" height="19" viewBox="0 0 19 19" fill="none" xmlns="http://www.w3.org/2000/svg">
<path d="M9.5 0C7.62108 0 5.78435 0.557165 4.22209 1.60104C2.65982 2.64491 1.44218 4.12861 0.723149 5.86451C0.00411619 7.6004 -0.184015 9.51054 0.182544 11.3534C0.549104 13.1962 1.45389 14.8889 2.78249 16.2175C4.11109 17.5461 5.80383 18.4509 7.64665 18.8175C9.48946 19.184 11.3996 18.9959 13.1355 18.2769C14.8714 17.5578 16.3551 16.3402 17.399 14.7779C18.4428 13.2156 19 11.3789 19 9.5C19 6.98044 17.9991 4.56408 16.2175 2.78248C14.4359 1.00089 12.0196 0 9.5 0ZM9.5 17.6429C7.8895 17.6429 6.31516 17.1653 4.97607 16.2705C3.63699 15.3758 2.5933 14.104 1.97698 12.6161C1.36067 11.1282 1.19942 9.49096 1.51361 7.91141C1.8278 6.33185 2.60334 4.88093 3.74213 3.74213C4.88093 2.60333 6.33185 1.8278 7.91141 1.51361C9.49097 1.19941 11.1282 1.36067 12.6161 1.97698C14.104 2.59329 15.3758 3.63698 16.2705 4.97607C17.1653 6.31516 17.6429 7.88949 17.6429 9.5C17.6429 11.6596 16.785 13.7308 15.2579 15.2579C13.7308 16.7849 11.6596 17.6429 9.5 17.6429Z" fill="#333333"/>
<path d="M9.50014 5.42871C8.69489 5.42871 7.90772 5.6675 7.23818 6.11487C6.56863 6.56224 6.04679 7.19811 5.73863 7.94207C5.43048 8.68603 5.34985 9.50465 5.50694 10.2944C5.66404 11.0842 6.05181 11.8097 6.62121 12.3791C7.19061 12.9485 7.91606 13.3362 8.70584 13.4933C9.49562 13.6504 10.3143 13.5698 11.0582 13.2616C11.8022 12.9535 12.438 12.4316 12.8854 11.7621C13.3328 11.0926 13.5716 10.3054 13.5716 9.50014C13.5716 8.42033 13.1426 7.38475 12.3791 6.6212C11.6155 5.85766 10.5799 5.42871 9.50014 5.42871Z" fill="#333333"/>
</svg>
