<svg width="37" height="36" viewBox="0 0 37 36" fill="none" xmlns="http://www.w3.org/2000/svg">
<path d="M18.5873 32.0772C18.4273 32.0594 18.2703 31.9913 18.1399 31.8728L15.2366 29.1916L12.6028 31.9024C12.588 31.9202 12.5732 31.935 12.5554 31.9528C12.2444 32.2638 11.7378 32.2638 11.4297 31.9528L8.66557 29.1887L5.81852 31.9024C5.50745 32.1987 5.0127 32.1927 4.70755 31.8876L1.99975 29.1502L1.43685 29.799C1.29169 29.9945 1.05764 30.1219 0.796936 30.1219C0.35551 30.1219 0 29.7634 0 29.3279V1.34332C0 0.901897 0.35551 0.546387 0.796936 0.546387H29.8125C30.2539 0.546387 30.6094 0.901897 30.6094 1.34332V13.6943H29.0185V2.14026H1.59387V27.2837C1.87532 27.1356 2.22787 27.1682 2.48265 27.3874C2.49746 27.3993 2.51227 27.4141 2.52709 27.4289L5.29118 30.2197L8.13526 27.5119C8.4493 27.2126 8.94109 27.2215 9.24623 27.5237L9.2492 27.5207L11.9896 30.2611L14.6411 27.5296C14.9433 27.2215 15.4351 27.2067 15.7491 27.5L18.5873 30.1219V32.0772ZM22.3735 15.8333H35.2607C35.5747 15.8333 35.8621 15.9607 36.0695 16.1681L36.0932 16.1948C36.2858 16.3992 36.4043 16.6747 36.4043 16.9739V34.4028C36.4043 34.7169 36.2769 35.0013 36.0695 35.2087L36.0665 35.2116C35.8592 35.419 35.5747 35.5464 35.2607 35.5464H22.3735C22.0594 35.5464 21.7721 35.419 21.5647 35.2116L21.541 35.185C21.3484 34.9805 21.2299 34.705 21.2299 34.4058V16.9769C21.2299 16.6629 21.3573 16.3785 21.5647 16.1711L21.5676 16.1681C21.7721 15.9637 22.0594 15.8333 22.3735 15.8333ZM32.6122 19.1662H32.9795V21.1482H32.6122V19.1662ZM23.9259 24.1612H25.7271C25.8812 24.1612 26.0086 24.2886 26.0086 24.4426V25.9624C26.0086 26.1165 25.8812 26.2439 25.7271 26.2439H23.9259C23.7718 26.2439 23.6444 26.1165 23.6444 25.9624V24.4426C23.6444 24.2886 23.7718 24.1612 23.9259 24.1612ZM23.9259 31.3899H25.7271C25.8812 31.3899 26.0086 31.5173 26.0086 31.6713V33.1911C26.0086 33.3452 25.8812 33.4726 25.7271 33.4726H23.9259C23.7718 33.4726 23.6444 33.3452 23.6444 33.1911V31.6713C23.6444 31.5173 23.7718 31.3899 23.9259 31.3899ZM23.9259 27.7755H25.7271C25.8812 27.7755 26.0086 27.9029 26.0086 28.057V29.5768C26.0086 29.7308 25.8812 29.8582 25.7271 29.8582H23.9259C23.7718 29.8582 23.6444 29.7308 23.6444 29.5768V28.057C23.6444 27.9029 23.7718 27.7755 23.9259 27.7755ZM31.91 24.1612H33.7113C33.8653 24.1612 33.9898 24.2886 33.9898 24.4426V25.9624C33.9898 26.1165 33.8624 26.2439 33.7113 26.2439H31.91C31.756 26.2439 31.6286 26.1165 31.6286 25.9624V24.4426C31.6286 24.2886 31.753 24.1612 31.91 24.1612ZM31.91 31.3899H33.7113C33.8653 31.3899 33.9898 31.5173 33.9898 31.6713V33.1911C33.9898 33.3452 33.8624 33.4726 33.7113 33.4726H31.91C31.756 33.4726 31.6286 33.3452 31.6286 33.1911V31.6713C31.6286 31.5173 31.753 31.3899 31.91 31.3899ZM31.91 27.7755H33.7113C33.8653 27.7755 33.9898 27.9029 33.9898 28.057V29.5768C33.9898 29.7308 33.8624 29.8582 33.7113 29.8582H31.91C31.756 29.8582 31.6286 29.7308 31.6286 29.5768V28.057C31.6286 27.9029 31.753 27.7755 31.91 27.7755ZM27.9165 24.1612H29.7177C29.8718 24.1612 29.9992 24.2886 29.9992 24.4426V25.9624C29.9992 26.1165 29.8718 26.2439 29.7177 26.2439H27.9165C27.7624 26.2439 27.635 26.1165 27.635 25.9624V24.4426C27.635 24.2886 27.7624 24.1612 27.9165 24.1612ZM27.9165 31.3899H29.7177C29.8718 31.3899 29.9992 31.5173 29.9992 31.6713V33.1911C29.9992 33.3452 29.8718 33.4726 29.7177 33.4726H27.9165C27.7624 33.4726 27.635 33.3452 27.635 33.1911V31.6713C27.635 31.5173 27.7624 31.3899 27.9165 31.3899ZM27.9165 27.7755H29.7177C29.8718 27.7755 29.9992 27.9029 29.9992 28.057V29.5768C29.9992 29.7308 29.8718 29.8582 29.7177 29.8582H27.9165C27.7624 29.8582 27.635 29.7308 27.635 29.5768V28.057C27.635 27.9029 27.7624 27.7755 27.9165 27.7755ZM23.6888 17.9901H33.9453C34.1023 17.9901 34.2416 18.0523 34.3423 18.156L34.366 18.1827C34.4549 18.2834 34.5082 18.4137 34.5082 18.553V21.7585C34.5082 21.9126 34.446 22.0548 34.3423 22.1555C34.2416 22.2562 34.0994 22.3214 33.9453 22.3214H23.6888C23.5318 22.3214 23.3926 22.2592 23.2919 22.1555L23.2682 22.1288C23.1793 22.0281 23.126 21.8977 23.126 21.7585V18.553C23.126 18.3989 23.1882 18.2597 23.2919 18.156C23.3926 18.0553 23.5348 17.9901 23.6888 17.9901ZM33.8713 18.6271H23.7629V21.6844H33.8713V18.6271ZM35.2607 16.6332H22.3735C22.2787 16.6332 22.1927 16.6717 22.1276 16.734C22.0653 16.7962 22.0268 16.8821 22.0268 16.9769V34.4058C22.0268 34.4947 22.0594 34.5747 22.1127 34.6339L22.1276 34.6487C22.1898 34.7109 22.2757 34.7495 22.3705 34.7495H35.2577C35.3525 34.7495 35.4385 34.7109 35.5007 34.6487C35.5629 34.5865 35.6014 34.5006 35.6014 34.4058V16.9769C35.6014 16.888 35.5688 16.808 35.5155 16.7488L35.5007 16.734C35.4414 16.6717 35.3555 16.6332 35.2607 16.6332ZM4.80235 5.10581H11.2578V6.80337H9.08922V11.9731H6.968V6.80633H4.79939V5.10581H4.80235ZM15.7847 10.8443H13.379L13.0354 11.976H10.8697L13.4561 5.10877H15.7787L18.3532 11.976H16.1313L15.7847 10.8443ZM15.3343 9.35712L14.5848 6.88929L13.8323 9.35712H15.3343ZM18.5517 5.10581H20.8922L22.1098 7.21813L23.2919 5.10581H25.6027L23.4696 8.43279L25.8041 11.9731H23.4163L22.0683 9.76596L20.7114 11.9731H18.3414L20.7085 8.39724L18.5517 5.10581ZM13.4235 22.4755C13.7494 22.4755 14.0101 22.7391 14.0101 23.062C14.0101 23.385 13.7464 23.6486 13.4235 23.6486H6.07034C5.74446 23.6486 5.48375 23.385 5.48375 23.062C5.48375 22.7362 5.74742 22.4755 6.07034 22.4755H13.4235ZM16.7534 18.5678C17.0793 18.5678 17.34 18.8315 17.34 19.1544C17.34 19.4803 17.0764 19.741 16.7534 19.741H5.90147C5.57559 19.741 5.31488 19.4773 5.31488 19.1544C5.31488 18.8285 5.57855 18.5678 5.90147 18.5678H16.7534ZM16.7831 14.6542C17.106 14.6542 17.3696 14.9179 17.3696 15.2408C17.3696 15.5667 17.106 15.8274 16.7831 15.8274H5.90147C5.57559 15.8274 5.31488 15.5637 5.31488 15.2408C5.31488 14.9149 5.57855 14.6542 5.90147 14.6542H16.7831Z" fill="#AE4603"/>
</svg>
