<svg width="50" height="28" viewBox="0 0 50 28" fill="none" xmlns="http://www.w3.org/2000/svg">
<path d="M48.8386 22.7618C46.0809 20.4899 43.1089 18.9896 42.5088 18.7039C42.4374 18.6753 42.3945 18.6038 42.3945 18.5324V14.2459C42.9375 13.8887 43.2947 13.2742 43.2947 12.5741V8.11612C43.2947 5.90142 41.4943 4.10107 39.2796 4.10107H38.7938H38.308C36.0933 4.10107 34.293 5.90142 34.293 8.11612V12.5741C34.293 13.2742 34.6502 13.8887 35.1931 14.2459V18.5324C35.1931 18.561 35.1931 18.5895 35.1789 18.6038C36.0219 19.1897 36.9077 19.8326 37.7651 20.5328C38.7795 21.3615 39.3511 22.5903 39.3511 23.9048V27.4912H49.6102V24.4478C49.6102 23.7762 49.3244 23.1618 48.8386 22.7618Z" fill="#AE4603"/>
<path d="M36.6225 21.9327C33.379 19.2751 29.8926 17.5033 29.1782 17.1604C29.0925 17.1175 29.0496 17.0461 29.0496 16.9461V11.9023C29.6783 11.4736 30.1069 10.7592 30.1069 9.94475V4.71518C30.1069 2.11469 27.9923 0 25.3918 0H24.8202H24.263C21.6625 0 19.5478 2.11469 19.5478 4.71518V9.94475C19.5478 10.7592 19.9622 11.4879 20.6051 11.9023V16.9461C20.6051 17.0318 20.548 17.1175 20.4765 17.1604C19.7621 17.5033 16.2757 19.2751 13.0323 21.9327C12.4464 22.4186 12.1035 23.133 12.1035 23.8903V27.4767H24.8202H37.5369V23.8903C37.5369 23.133 37.2083 22.4043 36.6225 21.9327Z" fill="#AE4603"/>
<path d="M14.4313 18.5177V14.2312C14.9743 13.874 15.3315 13.2596 15.3315 12.5595V8.10147C15.3315 5.88677 13.5311 4.08643 11.3164 4.08643H10.8306H10.3448C8.13012 4.08643 6.32978 5.88677 6.32978 8.10147V12.5595C6.32978 13.2596 6.68699 13.874 7.22995 14.2312V18.5177C7.22995 18.5892 7.18708 18.6606 7.11564 18.6892C6.51553 18.9893 3.54353 20.4895 0.785864 22.7471C0.285769 23.1615 0 23.7759 0 24.4189V27.4623H10.2591V23.8759C10.2591 22.5614 10.8306 21.3326 11.8451 20.5038C12.7024 19.7894 13.5883 19.1464 14.4313 18.5749C14.4456 18.5606 14.4313 18.532 14.4313 18.5177Z" fill="#AE4603"/>
</svg>
