<svg width="18" height="17" viewBox="0 0 18 17" fill="none" xmlns="http://www.w3.org/2000/svg">
<path d="M3.15625 2.44922C4.78906 0.816406 6.73698 0 9 0C11.263 0 13.1966 0.816406 14.8008 2.44922C16.4336 4.05339 17.25 5.98698 17.25 8.25C17.25 10.513 16.4336 12.4609 14.8008 14.0938C13.1966 15.6979 11.263 16.5 9 16.5C6.73698 16.5 4.78906 15.6979 3.15625 14.0938C1.55208 12.4609 0.75 10.513 0.75 8.25C0.75 5.98698 1.55208 4.05339 3.15625 2.44922ZM13.8555 3.39453C12.5091 2.04818 10.8906 1.375 9 1.375C7.10938 1.375 5.49089 2.04818 4.14453 3.39453C2.79818 4.74089 2.125 6.35938 2.125 8.25C2.125 10.1406 2.79818 11.7591 4.14453 13.1055C5.49089 14.4518 7.10938 15.125 9 15.125C10.8906 15.125 12.5091 14.4518 13.8555 13.1055C15.2018 11.7591 15.875 10.1406 15.875 8.25C15.875 6.35938 15.2018 4.74089 13.8555 3.39453ZM8.48438 2.27734C8.6276 2.13411 8.79948 2.0625 9 2.0625C9.20052 2.0625 9.35807 2.13411 9.47266 2.27734C9.61589 2.39193 9.6875 2.54948 9.6875 2.75C9.6875 2.95052 9.61589 3.1224 9.47266 3.26562C9.35807 3.38021 9.20052 3.4375 9 3.4375C8.79948 3.4375 8.6276 3.38021 8.48438 3.26562C8.36979 3.1224 8.3125 2.95052 8.3125 2.75C8.3125 2.54948 8.36979 2.39193 8.48438 2.27734ZM4.61719 3.91016C4.76042 3.76693 4.91797 3.69531 5.08984 3.69531C5.29036 3.69531 5.46224 3.76693 5.60547 3.91016C5.7487 4.02474 5.82031 4.18229 5.82031 4.38281C5.82031 4.55469 5.7487 4.71224 5.60547 4.85547C5.46224 4.9987 5.29036 5.07031 5.08984 5.07031C4.91797 5.07031 4.76042 4.9987 4.61719 4.85547C4.5026 4.71224 4.44531 4.55469 4.44531 4.38281C4.44531 4.18229 4.5026 4.02474 4.61719 3.91016ZM12.3945 3.86719L13.3828 4.85547L10.332 7.90625C10.3607 8.02083 10.375 8.13542 10.375 8.25C10.375 8.6224 10.2318 8.95182 9.94531 9.23828C9.6875 9.49609 9.3724 9.625 9 9.625C8.6276 9.625 8.29818 9.49609 8.01172 9.23828C7.75391 8.95182 7.625 8.6224 7.625 8.25C7.625 7.8776 7.75391 7.5625 8.01172 7.30469C8.29818 7.01823 8.6276 6.875 9 6.875C9.11458 6.875 9.22917 6.88932 9.34375 6.91797L12.3945 3.86719ZM2.98438 7.77734C3.1276 7.63411 3.29948 7.5625 3.5 7.5625C3.70052 7.5625 3.85807 7.63411 3.97266 7.77734C4.11589 7.89193 4.1875 8.04948 4.1875 8.25C4.1875 8.45052 4.11589 8.6224 3.97266 8.76562C3.85807 8.88021 3.70052 8.9375 3.5 8.9375C3.29948 8.9375 3.1276 8.88021 2.98438 8.76562C2.86979 8.6224 2.8125 8.45052 2.8125 8.25C2.8125 8.04948 2.86979 7.89193 2.98438 7.77734ZM13.9844 7.77734C14.1276 7.63411 14.2995 7.5625 14.5 7.5625C14.7005 7.5625 14.8581 7.63411 14.9727 7.77734C15.1159 7.89193 15.1875 8.04948 15.1875 8.25C15.1875 8.45052 15.1159 8.6224 14.9727 8.76562C14.8581 8.88021 14.7005 8.9375 14.5 8.9375C14.2995 8.9375 14.1276 8.88021 13.9844 8.76562C13.8698 8.6224 13.8125 8.45052 13.8125 8.25C13.8125 8.04948 13.8698 7.89193 13.9844 7.77734ZM4.61719 11.6445C4.76042 11.5013 4.91797 11.4297 5.08984 11.4297C5.29036 11.4297 5.46224 11.5013 5.60547 11.6445C5.7487 11.7878 5.82031 11.9596 5.82031 12.1602C5.82031 12.332 5.7487 12.4896 5.60547 12.6328C5.46224 12.7474 5.29036 12.8047 5.08984 12.8047C4.91797 12.8047 4.76042 12.7474 4.61719 12.6328C4.5026 12.4896 4.44531 12.332 4.44531 12.1602C4.44531 11.9596 4.5026 11.7878 4.61719 11.6445ZM12.3945 11.6445C12.5378 11.5013 12.6953 11.4297 12.8672 11.4297C13.0677 11.4297 13.2253 11.5013 13.3398 11.6445C13.4831 11.7878 13.5547 11.9596 13.5547 12.1602C13.5547 12.332 13.4831 12.4896 13.3398 12.6328C13.2253 12.7474 13.0677 12.8047 12.8672 12.8047C12.6953 12.8047 12.5378 12.7474 12.3945 12.6328C12.2513 12.4896 12.1797 12.332 12.1797 12.1602C12.1797 11.9596 12.2513 11.7878 12.3945 11.6445Z" fill="black"/>
</svg>
