<svg width="19" height="19" viewBox="0 0 19 19" fill="none" xmlns="http://www.w3.org/2000/svg">
<path d="M17.4167 1.78165H14.8438V0.594146C14.8439 0.436674 14.7814 0.285609 14.6701 0.174185C14.5588 0.0627614 14.4079 0.000105123 14.2504 1.40982e-07C14.0929 -0.000104841 13.9419 0.0623501 13.8304 0.173626C13.719 0.284901 13.6564 0.435882 13.6562 0.593354V1.78165H10.0938V0.594146C10.0938 0.516174 10.0785 0.438955 10.0487 0.366898C10.0189 0.294841 9.97522 0.229357 9.92013 0.174185C9.86503 0.119014 9.7996 0.0752349 9.72758 0.0453481C9.65557 0.0154614 9.57837 5.21137e-05 9.5004 1.32135e-07C9.34292 -0.000104849 9.19186 0.0623501 9.08043 0.173626C8.96901 0.284901 8.90635 0.435882 8.90625 0.593354V1.78165H5.34375V0.594146C5.3438 0.516174 5.3285 0.438955 5.29871 0.366898C5.26891 0.294841 5.22522 0.229357 5.17012 0.174185C5.11503 0.119014 5.0496 0.0752349 4.97758 0.0453481C4.90557 0.0154614 4.82837 5.21137e-05 4.7504 1.32135e-07C4.59292 -0.000104849 4.44186 0.0623501 4.33044 0.173626C4.21901 0.284901 4.15635 0.435882 4.15625 0.593354V1.78165H1.58333C1.16354 1.78165 0.760937 1.94835 0.464027 2.24511C0.167118 2.54188 0.000209894 2.9444 0 3.36419V17.4163C0 17.8362 0.166815 18.2389 0.463748 18.5359C0.76068 18.8328 1.16341 18.9996 1.58333 18.9996H17.4167C17.8366 18.9996 18.2393 18.8328 18.5363 18.5359C18.8332 18.2389 19 17.8362 19 17.4163V3.36419C18.9998 2.9444 18.8329 2.54188 18.536 2.24511C18.2391 1.94835 17.8365 1.78165 17.4167 1.78165ZM17.8125 17.4171C17.8125 17.5219 17.7709 17.6225 17.6968 17.6967C17.6228 17.7709 17.5223 17.8127 17.4175 17.8129H1.58333C1.47835 17.8129 1.37767 17.7712 1.30344 17.697C1.2292 17.6227 1.1875 17.522 1.1875 17.4171V3.36498C1.18771 3.26014 1.22951 3.15966 1.30372 3.08559C1.37793 3.01153 1.47849 2.96994 1.58333 2.96994H4.15625V4.15744C4.15615 4.31491 4.2186 4.46597 4.32988 4.5774C4.44115 4.68882 4.59213 4.75148 4.7496 4.75158C4.90708 4.75169 5.05814 4.68923 5.16956 4.57796C5.28099 4.46668 5.34365 4.3157 5.34375 4.15823V2.96994H8.90625V4.15744C8.90615 4.31491 8.9686 4.46597 9.07988 4.5774C9.19115 4.68882 9.34213 4.75148 9.4996 4.75158C9.65708 4.75169 9.80814 4.68923 9.91957 4.57796C10.031 4.46668 10.0936 4.3157 10.0938 4.15823V2.96994H13.6562V4.15744C13.6561 4.31491 13.7186 4.46597 13.8299 4.5774C13.9412 4.68882 14.0921 4.75148 14.2496 4.75158C14.4071 4.75169 14.5581 4.68923 14.6696 4.57796C14.781 4.46668 14.8436 4.3157 14.8438 4.15823V2.96994H17.4167C17.5214 2.97015 17.6217 3.01183 17.6958 3.08587C17.7698 3.15991 17.8115 3.26027 17.8117 3.36498L17.8125 17.4171Z" fill="#333333"/>
<path d="M4.15625 7.12549H6.53125V8.90674H4.15625V7.12549ZM4.15625 10.0942H6.53125V11.8755H4.15625V10.0942ZM4.15625 13.063H6.53125V14.8442H4.15625V13.063ZM8.3125 13.063H10.6875V14.8442H8.3125V13.063ZM8.3125 10.0942H10.6875V11.8755H8.3125V10.0942ZM8.3125 7.12549H10.6875V8.90674H8.3125V7.12549ZM12.4688 13.063H14.8438V14.8442H12.4688V13.063ZM12.4688 10.0942H14.8438V11.8755H12.4688V10.0942ZM12.4688 7.12549H14.8438V8.90674H12.4688V7.12549Z" fill="#333333"/>
</svg>
