<svg width="52" height="52" viewBox="0 0 52 52" fill="none" xmlns="http://www.w3.org/2000/svg">
<circle cx="25.5547" cy="26.3057" r="25.4707" fill="white"/>
<path d="M21.3861 22.9717C21.6071 22.9717 21.819 23.0595 21.9753 23.2158C22.1316 23.372 22.2194 23.584 22.2194 23.805V33.805C22.2194 34.026 22.1316 34.238 21.9753 34.3943C21.819 34.5505 21.6071 34.6383 21.3861 34.6383C21.1651 34.6383 20.9531 34.5505 20.7968 34.3943C20.6405 34.238 20.5527 34.026 20.5527 33.805V23.805C20.5527 23.584 20.6405 23.372 20.7968 23.2158C20.9531 23.0595 21.1651 22.9717 21.3861 22.9717ZM25.5527 22.9717C25.7737 22.9717 25.9857 23.0595 26.142 23.2158C26.2983 23.372 26.3861 23.584 26.3861 23.805V33.805C26.3861 34.026 26.2983 34.238 26.142 34.3943C25.9857 34.5505 25.7737 34.6383 25.5527 34.6383C25.3317 34.6383 25.1198 34.5505 24.9635 34.3943C24.8072 34.238 24.7194 34.026 24.7194 33.805V23.805C24.7194 23.584 24.8072 23.372 24.9635 23.2158C25.1198 23.0595 25.3317 22.9717 25.5527 22.9717ZM30.5527 23.805C30.5527 23.584 30.4649 23.372 30.3087 23.2158C30.1524 23.0595 29.9404 22.9717 29.7194 22.9717C29.4984 22.9717 29.2864 23.0595 29.1301 23.2158C28.9739 23.372 28.8861 23.584 28.8861 23.805V33.805C28.8861 34.026 28.9739 34.238 29.1301 34.3943C29.2864 34.5505 29.4984 34.6383 29.7194 34.6383C29.9404 34.6383 30.1524 34.5505 30.3087 34.3943C30.4649 34.238 30.5527 34.026 30.5527 33.805V23.805Z" fill="#FF0000"/>
<path d="M36.3874 18.8057C36.3874 19.2477 36.2118 19.6716 35.8992 19.9842C35.5867 20.2967 35.1627 20.4723 34.7207 20.4723H33.8874V35.4723C33.8874 36.3564 33.5362 37.2042 32.9111 37.8294C32.2859 38.4545 31.4381 38.8057 30.554 38.8057H20.554C19.67 38.8057 18.8221 38.4545 18.197 37.8294C17.5719 37.2042 17.2207 36.3564 17.2207 35.4723V20.4723H16.3874C15.9453 20.4723 15.5214 20.2967 15.2089 19.9842C14.8963 19.6716 14.7207 19.2477 14.7207 18.8057V17.139C14.7207 16.697 14.8963 16.273 15.2089 15.9605C15.5214 15.6479 15.9453 15.4723 16.3874 15.4723H22.2207C22.2207 15.0303 22.3963 14.6064 22.7089 14.2938C23.0214 13.9813 23.4453 13.8057 23.8874 13.8057H27.2207C27.6627 13.8057 28.0867 13.9813 28.3992 14.2938C28.7118 14.6064 28.8874 15.0303 28.8874 15.4723H34.7207C35.1627 15.4723 35.5867 15.6479 35.8992 15.9605C36.2118 16.273 36.3874 16.697 36.3874 17.139V18.8057ZM19.084 20.4723L18.8874 20.5707V35.4723C18.8874 35.9144 19.063 36.3383 19.3755 36.6508C19.6881 36.9634 20.112 37.139 20.554 37.139H30.554C30.9961 37.139 31.42 36.9634 31.7325 36.6508C32.0451 36.3383 32.2207 35.9144 32.2207 35.4723V20.5707L32.024 20.4723H19.084ZM16.3874 18.8057H34.7207V17.139H16.3874V18.8057Z" fill="#FF0000"/>
</svg>
