<svg width="48" height="36" viewBox="0 0 48 36" fill="none" xmlns="http://www.w3.org/2000/svg">
<g clip-path="url(#clip0_1700_163)">
<path fill-rule="evenodd" clip-rule="evenodd" d="M46.8504 16.2464C47.1779 16.7936 47.3552 17.3794 47.3552 17.9844C47.3552 21.1985 42.3838 23.8036 36.2563 23.8036C30.1288 23.8036 25.1575 21.1985 25.1575 17.9844C25.1575 17.3794 25.3347 16.7936 25.6623 16.2464C27.0728 18.6087 31.2811 20.3275 36.2563 20.3275C41.2316 20.3275 45.4399 18.6126 46.8504 16.2464ZM21.6929 24.9135C22.0205 25.4646 22.1978 26.0465 22.1978 26.6515C22.1978 29.8656 17.2264 32.4708 11.0989 32.4708C4.97137 32.4708 0 29.8656 0 26.6515C0 26.0465 0.177274 25.4607 0.504845 24.9135C1.91533 27.2759 6.1275 28.9946 11.0989 28.9946C16.0741 28.9946 20.2824 27.2797 21.6929 24.9135ZM12.7098 16.4044L12.6866 14.963C13.0142 14.9515 13.2801 14.8513 13.4844 14.6663C13.6925 14.4813 13.8042 14.2578 13.8274 13.9957C13.8543 13.6952 13.7541 13.4331 13.5306 13.2019C13.3071 12.9745 12.9448 12.8358 12.4554 12.7934C11.9968 12.7548 11.6423 12.8281 11.3956 13.013C11.149 13.198 11.0102 13.4562 10.9833 13.7876C10.9486 14.2 11.0989 14.5854 11.4342 14.9438L11.1644 16.0922L7.33374 15.017L7.66131 11.2249L9.00242 11.3405L8.76734 14.0458L10.0198 14.3811C9.88879 14.0458 9.83484 13.7144 9.86567 13.3791C9.91962 12.7433 10.2009 12.223 10.6981 11.8222C11.1991 11.4214 11.8195 11.2519 12.5595 11.3174C13.1761 11.3713 13.7079 11.5948 14.1588 11.9956C14.7754 12.539 15.049 13.2443 14.9719 14.1075C14.9103 14.7973 14.679 15.3446 14.2705 15.7492C13.8659 16.1577 13.3456 16.3774 12.7098 16.4044ZM11.0989 10.6237C16.1358 10.6237 20.2208 12.2269 20.2208 14.2C20.2208 16.177 16.1358 17.7763 11.0989 17.7763C6.06199 17.7763 1.97699 16.1808 1.97699 14.2038C1.97699 12.2269 6.06199 10.6237 11.0989 10.6237ZM11.0989 9.44058C17.2264 9.44058 22.1978 12.0457 22.1978 15.2598C22.1978 18.4738 17.2264 21.079 11.0989 21.079C4.97137 21.0751 0 18.47 0 15.2598C0 12.0457 4.97137 9.44058 11.0989 9.44058ZM21.7314 19.1367C22.032 19.6647 22.1978 20.2273 22.1978 20.8054C22.1978 24.0194 17.2264 26.6246 11.0989 26.6246C4.97137 26.6246 0 24.0194 0 20.8092C0 20.2273 0.161859 19.6685 0.466307 19.1405C1.83825 21.5376 6.07741 23.2872 11.0989 23.2872C16.1203 23.2833 20.3634 21.5376 21.7314 19.1367ZM40.2643 4.22257L40.1371 5.66773L34.6878 5.19372C35.1387 5.76408 35.447 6.41922 35.6205 7.15529L34.3102 7.03968C34.2215 6.6543 34.0211 6.22268 33.7167 5.75252C33.4084 5.2785 33.0346 4.94322 32.5875 4.73897L32.6916 3.56743L40.2643 4.22257ZM36.2563 1.9604C41.2932 1.9604 45.3782 3.56357 45.3782 5.53671C45.3782 7.51369 41.2932 9.11301 36.2563 9.11301C31.2194 9.11301 27.1344 7.50984 27.1344 5.53671C27.1344 3.55972 31.2194 1.9604 36.2563 1.9604ZM36.2563 0.773438C42.3838 0.773438 47.3552 3.37859 47.3552 6.59264C47.3552 9.80669 42.3838 12.4118 36.2563 12.4118C30.1288 12.4118 25.1575 9.80669 25.1575 6.59264C25.1575 3.37859 30.1288 0.773438 36.2563 0.773438ZM46.8889 10.4695C47.1895 10.9975 47.3552 11.5602 47.3552 12.1382C47.3552 15.3523 42.3838 17.9574 36.2563 17.9574C30.1288 17.9574 25.1575 15.3523 25.1575 12.1382C25.1575 11.5563 25.3193 10.9975 25.6238 10.4695C26.9918 12.8666 31.2349 14.6162 36.2563 14.6162C41.2778 14.6201 45.5208 12.8704 46.8889 10.4695ZM46.781 28.1044C47.151 28.6863 47.3552 29.3068 47.3552 29.9542C47.3552 33.1683 42.3838 35.7734 36.2563 35.7734C30.1288 35.7734 25.1575 33.1683 25.1575 29.9542C25.1575 29.3068 25.3578 28.6863 25.7317 28.1044C27.2077 30.409 31.362 32.0738 36.2563 32.0738C41.1506 32.0738 45.3088 30.4128 46.781 28.1044ZM46.8349 22.1195C47.1741 22.6783 47.3552 23.2679 47.3552 23.8845C47.3552 27.0986 42.3838 29.7037 36.2563 29.7037C30.1288 29.7037 25.1575 27.0986 25.1575 23.8845C25.1575 23.2679 25.3424 22.6745 25.6777 22.1195C27.1036 24.4703 31.3004 26.1698 36.2563 26.1698C41.2123 26.1698 45.4052 24.4703 46.8349 22.1195Z" fill="#AE4603"/>
</g>
<defs>
<clipPath id="clip0_1700_163">
<rect width="47.3552" height="35" fill="white" transform="translate(0 0.773438)"/>
</clipPath>
</defs>
</svg>
