<svg width="20" height="19" viewBox="0 0 20 19" fill="none" xmlns="http://www.w3.org/2000/svg">
<path d="M10 18.6C15.0258 18.6 19.1 14.5258 19.1 9.5C19.1 4.47421 15.0258 0.4 10 0.4C4.97421 0.4 0.9 4.47421 0.9 9.5C0.9 14.5258 4.97421 18.6 10 18.6Z" stroke="#5C5C5C" stroke-width="0.2"/>
<path d="M10 10.2929L7.73162 7.64645C7.56425 7.45118 7.29289 7.45118 7.12553 7.64645C6.95816 7.84171 6.95816 8.15829 7.12553 8.35355L9.69695 11.3536C9.86432 11.5488 10.1357 11.5488 10.303 11.3536L12.8745 8.35355C13.0418 8.15829 13.0418 7.84171 12.8745 7.64645C12.7071 7.45118 12.4358 7.45118 12.2684 7.64645L10 10.2929Z" fill="#565656"/>
<mask id="mask0_836_1373" style="mask-type:luminance" maskUnits="userSpaceOnUse" x="7" y="7" width="6" height="5">
<path d="M10 10.2929L7.73162 7.64645C7.56425 7.45118 7.29289 7.45118 7.12553 7.64645C6.95816 7.84171 6.95816 8.15829 7.12553 8.35355L9.69695 11.3536C9.86432 11.5488 10.1357 11.5488 10.303 11.3536L12.8745 8.35355C13.0418 8.15829 13.0418 7.84171 12.8745 7.64645C12.7071 7.45118 12.4358 7.45118 12.2684 7.64645L10 10.2929Z" fill="white"/>
</mask>
<g mask="url(#mask0_836_1373)">
</g>
</svg>
