<svg width="20" height="20" viewBox="0 0 20 20" fill="none" xmlns="http://www.w3.org/2000/svg">
<path d="M4.5 5.375H3.5C2.96957 5.375 2.46086 5.58571 2.08579 5.96079C1.71071 6.33586 1.5 6.84457 1.5 7.375V16.375C1.5 16.9054 1.71071 17.4141 2.08579 17.7892C2.46086 18.1643 2.96957 18.375 3.5 18.375H12.5C13.0304 18.375 13.5391 18.1643 13.9142 17.7892C14.2893 17.4141 14.5 16.9054 14.5 16.375V15.375" stroke="black" stroke-width="2" stroke-linecap="round" stroke-linejoin="round"/>
<path d="M13.5 3.37511L16.5 6.37511M17.885 4.96011C18.2788 4.56626 18.5001 4.03209 18.5001 3.47511C18.5001 2.91812 18.2788 2.38395 17.885 1.99011C17.4912 1.59626 16.957 1.375 16.4 1.375C15.843 1.375 15.3088 1.59626 14.915 1.99011L6.5 10.3751V13.3751H9.5L17.885 4.96011Z" stroke="black" stroke-width="2" stroke-linecap="round" stroke-linejoin="round"/>
</svg>
