<svg width="36" height="36" viewBox="0 0 36 36" fill="none" xmlns="http://www.w3.org/2000/svg">
<g clip-path="url(#clip0_1700_196)">
<path d="M20.3073 1.72705C20.3073 1.07695 20.9487 0.546387 21.7475 0.546387C22.5462 0.546387 23.1876 1.07404 23.1876 1.72705V6.8928C23.1876 7.54289 22.5462 8.07346 21.7475 8.07346C20.9487 8.07346 20.3073 7.5458 20.3073 6.8928V1.72705ZM26.6363 17.1718C27.8781 17.1718 29.0646 17.4196 30.1491 17.8686C31.2773 18.335 32.2889 19.0172 33.1343 19.8626C33.9797 20.708 34.6618 21.7225 35.1283 22.8448C35.5772 23.9293 35.825 25.1158 35.825 26.3576C35.825 27.5995 35.5772 28.786 35.1283 29.8705C34.6618 30.9987 33.9797 32.0102 33.1343 32.8557C32.2889 33.7011 31.2744 34.3832 30.152 34.8497C29.0676 35.2986 27.8811 35.5464 26.6392 35.5464C25.3973 35.5464 24.2108 35.2986 23.1264 34.8497C21.9982 34.3832 20.9866 33.7011 20.1412 32.8557C19.2958 32.0102 18.6136 30.9957 18.1472 29.8705C17.6982 28.786 17.4504 27.5995 17.4504 26.3576C17.4504 25.1158 17.6982 23.9293 18.1472 22.8448C18.6136 21.7166 19.2958 20.7051 20.1412 19.8596C20.9866 19.0142 22.0011 18.3321 23.1234 17.8656C24.2079 17.4196 25.3915 17.1718 26.6363 17.1718ZM25.9483 22.5183C25.9483 22.2968 26.0386 22.0956 26.1844 21.9499C26.3302 21.8041 26.5313 21.7137 26.7558 21.7137C26.9803 21.7137 27.1814 21.8041 27.3272 21.9499C27.4729 22.0956 27.5633 22.2968 27.5633 22.5212V26.8183L30.7759 28.7248L30.8021 28.7423C30.9799 28.856 31.0965 29.028 31.1432 29.2175C31.1927 29.4157 31.1694 29.6314 31.0616 29.818L31.0557 29.8267C31.0499 29.8384 31.0441 29.8472 31.0353 29.8559C30.9216 30.0308 30.7496 30.1474 30.5631 30.1941C30.3648 30.2436 30.1491 30.2203 29.9625 30.1124L26.371 27.9873C26.2456 27.9202 26.1407 27.8182 26.0649 27.6986C25.9891 27.5762 25.9454 27.4334 25.9454 27.2818L25.9483 22.5183ZM31.9944 20.9995C31.2948 20.2998 30.461 19.7372 29.5369 19.3553C28.6448 18.9851 27.6653 18.7839 26.6363 18.7839C25.6072 18.7839 24.6277 18.988 23.7356 19.3553C22.8115 19.7372 21.9778 20.2998 21.2781 20.9995C20.5785 21.6991 20.0158 22.5329 19.6339 23.457C19.2637 24.3491 19.0626 25.3286 19.0626 26.3576C19.0626 27.3867 19.2666 28.3662 19.6339 29.2583C20.0158 30.1824 20.5785 31.0162 21.2781 31.7158C21.9778 32.4155 22.8115 32.9781 23.7356 33.36C24.6277 33.7302 25.6072 33.9314 26.6363 33.9314C27.6653 33.9314 28.6448 33.7273 29.5369 33.36C30.461 32.9781 31.2948 32.4155 31.9944 31.7158C33.3675 30.3427 34.2129 28.4508 34.2129 26.3576C34.2129 25.3286 34.0088 24.3491 33.6415 23.457C33.2567 22.5329 32.6941 21.6991 31.9944 20.9995ZM3.92096 17.268C3.83933 17.268 3.76645 16.9095 3.76645 16.4693C3.76645 16.0291 3.83058 15.6734 3.92096 15.6734H7.85066C7.93228 15.6734 8.00516 16.032 8.00516 16.4693C8.00516 16.9095 7.94103 17.268 7.85066 17.268H3.92096ZM10.1857 17.268C10.1041 17.268 10.0312 16.9095 10.0312 16.4693C10.0312 16.0291 10.0954 15.6734 10.1857 15.6734H14.1154C14.1971 15.6734 14.2699 16.032 14.2699 16.4693C14.2699 16.9095 14.2058 17.268 14.1154 17.268H10.1857ZM16.4505 17.268C16.3689 17.268 16.296 16.9095 16.296 16.4693C16.296 16.0291 16.3602 15.6734 16.4505 15.6734H20.3802C20.4619 15.6734 20.5347 16.0291 20.5347 16.4663C20.1412 16.7112 19.7622 16.9794 19.4007 17.268H16.4505ZM3.9297 21.8391C3.84808 21.8391 3.7752 21.4805 3.7752 21.0403C3.7752 20.6001 3.83933 20.2415 3.9297 20.2415H7.8594C7.94103 20.2415 8.01391 20.6001 8.01391 21.0403C8.01391 21.4805 7.94978 21.8391 7.8594 21.8391H3.9297ZM10.1945 21.8391C10.1129 21.8391 10.04 21.4805 10.04 21.0403C10.04 20.6001 10.1041 20.2415 10.1945 20.2415H14.1242C14.2058 20.2415 14.2787 20.6001 14.2787 21.0403C14.2787 21.4805 14.2146 21.8391 14.1242 21.8391H10.1945ZM3.93845 26.413C3.85682 26.413 3.78394 26.0545 3.78394 25.6143C3.78394 25.1741 3.84808 24.8155 3.93845 24.8155H7.86815C7.94978 24.8155 8.02266 25.1741 8.02266 25.6143C8.02266 26.0545 7.95852 26.413 7.86815 26.413H3.93845ZM10.2032 26.413C10.1216 26.413 10.0487 26.0545 10.0487 25.6143C10.0487 25.1741 10.1129 24.8155 10.2032 24.8155H14.1329C14.2146 24.8155 14.2874 25.1741 14.2874 25.6143C14.2874 26.0545 14.2233 26.413 14.1329 26.413H10.2032ZM7.37256 1.72705C7.37256 1.07695 8.01391 0.546387 8.81268 0.546387C9.61144 0.546387 10.2528 1.07404 10.2528 1.72705V6.8928C10.2528 7.54289 9.60853 8.07346 8.81268 8.07346C8.01391 8.07346 7.37256 7.5458 7.37256 6.8928V1.72705ZM1.58587 11.8399H29.0122V5.89288C29.0122 5.68882 28.9305 5.51099 28.7994 5.3798C28.6682 5.24862 28.4816 5.16699 28.2863 5.16699H25.6568C25.2166 5.16699 24.858 4.80842 24.858 4.36823C24.858 3.92803 25.2166 3.56946 25.6568 3.56946H28.2863C28.9305 3.56946 29.5077 3.82891 29.9305 4.25162C30.3532 4.67432 30.6126 5.25153 30.6126 5.8958V15.3382C30.0879 15.1574 29.5486 15.0117 28.9947 14.9038V13.4287H29.0122H1.58587V28.8297C1.58587 29.0338 1.6675 29.2116 1.79868 29.3428C1.92987 29.474 2.11644 29.5556 2.31176 29.5556H15.3457C15.4943 30.1095 15.6809 30.6488 15.9054 31.1677H2.32634C1.68499 31.1677 1.10486 30.9083 0.682159 30.4856C0.259454 30.0658 0 29.4886 0 28.8443V5.89871C0 5.25737 0.259454 4.67724 0.682159 4.25453C1.10486 3.83183 1.68208 3.57237 2.32634 3.57237H5.13368C5.57388 3.57237 5.93245 3.93094 5.93245 4.37114C5.93245 4.81134 5.57388 5.16991 5.13368 5.16991H2.32634C2.12227 5.16991 1.94444 5.25153 1.81326 5.38272C1.68208 5.5139 1.60045 5.70048 1.60045 5.8958V11.8428H1.58587V11.8399ZM12.5558 5.16699C12.1156 5.16699 11.757 4.80842 11.757 4.36823C11.757 3.92803 12.1156 3.56946 12.5558 3.56946H17.9081C18.3483 3.56946 18.7069 3.92803 18.7069 4.36823C18.7069 4.80842 18.3483 5.16699 17.9081 5.16699H12.5558Z" fill="#AE4603"/>
</g>
<defs>
<clipPath id="clip0_1700_196">
<rect width="35.8221" height="35" fill="white" transform="translate(0 0.546387)"/>
</clipPath>
</defs>
</svg>
