<svg width="47" height="35" viewBox="0 0 47 35" fill="none" xmlns="http://www.w3.org/2000/svg">
<path fill-rule="evenodd" clip-rule="evenodd" d="M0 14.873H9.38014V31.5631H0V14.873ZM30.8755 0C35.4844 0 39.2281 3.73619 39.2281 8.35259C39.2281 12.9614 35.4919 16.7052 30.8755 16.7052C26.2667 16.7052 22.5229 12.969 22.5229 8.35259C22.5267 3.74375 26.2629 0 30.8755 0ZM31.8615 10.4152C31.8615 10.1017 31.7859 9.85614 31.6311 9.67858C31.4762 9.50103 31.2042 9.33103 30.8151 9.17614C30.4297 9.01748 30.0709 8.85881 29.7422 8.69637C29.4135 8.53393 29.1302 8.34504 28.8922 8.12971C28.6542 7.91815 28.4729 7.66882 28.3444 7.38927C28.2198 7.10972 28.1555 6.76972 28.1555 6.36928C28.1555 5.70062 28.3822 5.14907 28.8318 4.7184C29.2813 4.28396 29.882 4.03085 30.6337 3.96285V3.05997H31.5782V3.98174C32.2997 4.08752 32.8702 4.38596 33.2819 4.87329C33.6937 5.36062 33.9053 5.98017 33.9053 6.73194H31.8993C31.8993 6.32017 31.8199 6.00662 31.6613 5.78373C31.5026 5.56462 31.2797 5.45129 30.9851 5.45129C30.7244 5.45129 30.5204 5.5344 30.3769 5.69684C30.2333 5.85928 30.1615 6.08595 30.1615 6.37683C30.1615 6.6715 30.2446 6.90194 30.4108 7.07194C30.5771 7.24571 30.8453 7.40816 31.2117 7.56682C31.582 7.72171 31.9257 7.88415 32.2544 8.05415C32.5793 8.22415 32.8626 8.41304 33.1006 8.62459C33.3386 8.83992 33.5237 9.08925 33.6559 9.37259C33.7919 9.65592 33.8599 9.99969 33.8599 10.3964C33.8599 11.0726 33.6446 11.6241 33.2177 12.051C32.787 12.4779 32.2053 12.7272 31.4648 12.799V13.6377H30.5242V12.7914C29.6629 12.7008 28.998 12.4061 28.5409 11.9037C28.08 11.405 27.8495 10.7439 27.8495 9.92414H29.8442C29.8442 10.3775 29.9424 10.7175 30.1426 10.9555C30.3391 11.1897 30.6262 11.3068 30.9926 11.3068C31.2608 11.3068 31.4724 11.2275 31.6273 11.065C31.7822 10.9139 31.8615 10.691 31.8615 10.4152ZM11.269 30.1615V16.2103H17.5438C20.2034 16.6863 22.8629 18.1294 25.5224 19.8029H30.3957C32.6019 19.9352 33.7579 22.1716 31.6122 23.6411C29.9046 24.8953 27.6493 24.8236 25.3373 24.6158C23.7431 24.5365 23.6751 26.6784 25.3373 26.686C25.9153 26.7313 26.5424 26.5953 27.0902 26.5953C29.9764 26.5915 32.3488 26.04 33.8033 23.762L34.5324 22.0583L41.7819 18.4656C45.4085 17.2719 47.9849 21.0647 45.3141 23.7054C40.063 27.5247 34.6797 30.6677 29.1717 33.2064C25.1711 35.6392 21.1705 35.5561 17.1736 33.2064L11.269 30.1615Z" fill="#AE4603"/>
</svg>
