<svg width="25" height="35" viewBox="0 0 25 35" fill="none" xmlns="http://www.w3.org/2000/svg">
<g clip-path="url(#clip0_1700_202)">
<path d="M1.68472 2.07203H4.19948V0H5.40588V2.07203H9.16331V0H10.3697V2.07203H14.1271V0H15.3342V2.07203H19.091V0H20.2981V2.07203H22.8128C23.2747 2.07203 23.6956 2.26157 24.0021 2.56745C24.308 2.87128 24.4975 3.2928 24.4975 3.75606V33.3153C24.4975 33.7785 24.3066 34.1994 24.0021 34.5039C23.6962 34.8091 23.2733 35 22.8128 35H1.68472C1.22351 35 0.801302 34.8098 0.495425 34.5039C0.190917 34.1994 0 33.7792 0 33.3153V3.75606C0 3.29417 0.189548 2.87333 0.494056 2.56814L0.496794 2.56608C0.801302 2.26157 1.22214 2.07203 1.68472 2.07203ZM20.3049 29.564H4.19264V28.3576H20.3049V29.564ZM20.3049 24.6755H4.19264V23.4691H20.3049V24.6755ZM20.3049 19.7869H4.19264V18.5805H20.3049V19.7869ZM20.3049 14.8983H4.19264V13.6912H20.3049V14.8983ZM20.3049 10.0098H4.19264V8.80269H20.3049V10.0098ZM20.2981 3.27843V4.54573H19.091V3.27843H15.3342V4.54573H14.1271V3.27843H10.3697V4.54573H9.16331V3.27843H5.40588V4.54573H4.19948V3.27843H1.68472C1.55265 3.27843 1.4329 3.33249 1.346 3.41802C1.25688 3.508 1.20673 3.62942 1.2064 3.75606V33.3153C1.2064 33.4446 1.26183 33.5637 1.34873 33.6506C1.43632 33.7382 1.55607 33.7929 1.68472 33.7929H22.8128C22.9415 33.7929 23.0612 33.7382 23.1488 33.6506C23.2357 33.5637 23.2911 33.4439 23.2911 33.3153V3.75606C23.2911 3.62605 23.2364 3.5063 23.1495 3.41939C23.1057 3.37449 23.0533 3.33886 22.9955 3.31464C22.9377 3.29042 22.8755 3.27811 22.8128 3.27843H20.2981Z" fill="#AE4603"/>
</g>
<defs>
<clipPath id="clip0_1700_202">
<rect width="24.4975" height="35" fill="white"/>
</clipPath>
</defs>
</svg>
