<svg width="46" height="36" viewBox="0 0 46 36" fill="none" xmlns="http://www.w3.org/2000/svg">
<g clip-path="url(#clip0_1700_185)">
<path d="M3.15585 2.56208C2.84667 2.56208 2.56219 2.69196 2.3537 2.90008C2.14558 3.1082 2.01606 3.39268 2.01606 3.70187V10.9146V18.0243V25.1786V32.523C2.01606 32.7439 2.15793 32.9565 2.36268 33.1276C2.664 33.3806 3.06377 33.5303 3.41226 33.5303H7.00007V30.7192C7.00007 30.163 7.4515 29.7119 8.00773 29.7119H13.4177C13.9743 29.7119 14.4254 30.163 14.4254 30.7192V33.5303H32.2155V30.7192C32.2155 30.163 32.6665 29.7119 33.2231 29.7119H38.5886C39.1452 29.7119 39.5962 30.163 39.5962 30.7192V33.5303H42.9718C43.2379 33.5303 43.4891 33.4128 43.6755 33.226C43.8623 33.0396 43.9798 32.7888 43.9798 32.5227V7.7456C43.9798 7.46711 43.8672 7.21519 43.6845 7.0329C43.5026 6.85061 43.2507 6.73757 42.9718 6.73757H24.2882C23.732 6.73757 23.2806 6.28614 23.2806 5.72991C23.2806 4.93112 23.2794 3.9841 23.0339 3.33616C22.8647 2.8896 22.5132 2.56245 21.7964 2.56245L3.15585 2.56208ZM25.6795 22.3634H40.4014V24.3199H25.6795V22.3634ZM25.6795 12.1337H40.4014V14.0899H25.6795V12.1337ZM25.6795 17.2487H40.4014V19.2053H25.6795V17.2487ZM9.88492 10.9879V12.6727C9.03598 12.8891 9.07565 15.2151 10.0197 15.2151C10.3105 15.2098 11.6577 17.1675 11.8561 17.4939C12.2409 18.1269 11.8561 18.3597 11.8561 18.7924C7.72625 19.7237 6.5348 20.1399 6.5348 24.3195H13.7512H20.9673C20.9673 20.1399 19.7755 19.7241 15.646 18.7924C15.646 18.2777 15.305 18.0554 15.646 17.4939C16.0308 16.8606 16.7356 15.9742 17.4599 15.2147C18.4553 15.2334 18.48 12.8924 17.6172 12.6723V10.9875C17.6168 6.92847 9.88492 6.92847 9.88492 10.9879ZM0.928303 1.47506C1.50026 0.903109 2.29006 0.546387 3.15585 0.546387H21.796C23.5654 0.546387 24.4604 1.4264 24.9156 2.62758C25.1682 3.29461 25.2528 4.02453 25.2816 4.72188H42.9722C43.8076 4.72188 44.5634 5.06026 45.1106 5.60751C45.6579 6.15476 45.9959 6.91087 45.9959 7.7456V32.5234C45.9959 33.3458 45.65 34.1034 45.1009 34.6525C44.5518 35.2009 43.7949 35.5468 42.9718 35.5468H38.5886C38.032 35.5468 37.5809 35.0957 37.5809 34.5395V31.7284H34.2312V34.5395C34.2312 35.0957 33.7801 35.5468 33.2235 35.5468H13.4177C12.8611 35.5468 12.4097 35.0957 12.4097 34.5395V31.7284H9.01576V34.5395C9.01576 35.0957 8.56471 35.5468 8.00811 35.5468H3.41226C2.61759 35.5468 1.72634 35.2207 1.07167 34.6716C0.438698 34.1412 0 33.4019 0 32.5234V25.179V18.0243V10.9146V3.70187C0 2.83607 0.356723 2.04664 0.928303 1.47506Z" fill="#AE4603"/>
</g>
<defs>
<clipPath id="clip0_1700_185">
<rect width="45.9959" height="35" fill="white" transform="translate(0 0.546387)"/>
</clipPath>
</defs>
</svg>
