<svg width="31" height="35" viewBox="0 0 31 35" fill="none" xmlns="http://www.w3.org/2000/svg">
<path d="M1.41004 8.53529H7.8396V7.22535C7.87761 5.29608 8.67069 3.45866 10.0485 2.1077C11.4264 0.756741 13.2791 0 15.2087 0C17.1383 0 18.991 0.756741 20.3689 2.1077C21.7467 3.45866 22.5398 5.29608 22.5778 7.22535V8.53529H29.0588C29.2434 8.5358 29.4261 8.5727 29.5964 8.64386C29.7666 8.71502 29.9212 8.81905 30.0513 8.95C30.1822 9.08054 30.286 9.23569 30.3567 9.40652C30.4274 9.57734 30.4636 9.76046 30.4632 9.94533V29.9376C30.4594 31.2791 29.9248 32.5645 28.9762 33.5131C28.0277 34.4617 26.7422 34.9962 25.4007 35H5.06242C3.72143 34.9962 2.43641 34.462 1.48792 33.5141C0.539432 32.5661 0.00452762 31.2814 0 29.9404L0 9.94819C0.000141306 9.76314 0.0368527 9.57995 0.108024 9.40914C0.179196 9.23832 0.283424 9.08326 0.414718 8.95286C0.544777 8.82191 0.699374 8.71788 0.869669 8.64672C1.03996 8.57556 1.22262 8.53866 1.40718 8.53815L1.41004 8.53529ZM9.63575 8.53529H20.7902V7.22535C20.7902 5.74617 20.2026 4.32758 19.1567 3.28165C18.1108 2.23571 16.6922 1.64811 15.213 1.64811C13.7338 1.64811 12.3152 2.23571 11.2693 3.28165C10.2234 4.32758 9.63575 5.74617 9.63575 7.22535V8.53529ZM7.8396 12.2534V10.3314H1.79616V28.0642H28.6813V10.3314H22.5778V12.2649C22.9333 12.4708 23.2102 12.789 23.3652 13.1694C23.5201 13.5498 23.5443 13.971 23.4339 14.3667C23.3235 14.7623 23.0848 15.1101 22.7553 15.3554C22.4257 15.6006 22.0241 15.7294 21.6133 15.7216C21.2026 15.7137 20.8062 15.5697 20.4862 15.312C20.1663 15.0543 19.9411 14.6977 19.8459 14.2981C19.7507 13.8985 19.7909 13.4786 19.9603 13.1043C20.1297 12.7301 20.4186 12.4228 20.7816 12.2306V10.3314H9.62717V12.2506C9.98652 12.4496 10.2696 12.7625 10.4318 13.1399C10.594 13.5173 10.6263 13.9379 10.5235 14.3356C10.4207 14.7333 10.1887 15.0857 9.86385 15.3372C9.53905 15.5887 9.13989 15.7252 8.72909 15.7252C8.31829 15.7252 7.91913 15.5887 7.59433 15.3372C7.26953 15.0857 7.03751 14.7333 6.9347 14.3356C6.8319 13.9379 6.86416 13.5173 7.02639 13.1399C7.18863 12.7625 7.47166 12.4496 7.83101 12.2506L7.8396 12.2534Z" fill="#AE4603"/>
</svg>
