<svg width="21" height="21" viewBox="0 0 21 21" fill="none" xmlns="http://www.w3.org/2000/svg">
<path d="M10.1689 0C7.49655 0.0324258 4.94275 1.10844 3.05294 2.99825C1.16313 4.88806 0.0871133 7.44186 0.0546875 10.1143C0.0871133 12.7867 1.16313 15.3405 3.05294 17.2303C4.94275 19.1201 7.49655 20.1961 10.1689 20.2285C12.8413 20.1961 15.3951 19.1201 17.285 17.2303C19.1748 15.3405 20.2508 12.7867 20.2832 10.1143C20.2508 7.44186 19.1748 4.88806 17.285 2.99825C15.3951 1.10844 12.8413 0.0324258 10.1689 0ZM15.9485 10.8367H10.8914V15.8938H9.4465V10.8367H4.38937V9.39181H9.4465V4.33468H10.8914V9.39181H15.9485V10.8367Z" fill="#F1B82D"/>
</svg>
