<svg width="19" height="19" viewBox="0 0 19 19" fill="none" xmlns="http://www.w3.org/2000/svg">
<path d="M9.5 0C8.78013 0 8.08974 0.285969 7.58071 0.794996C7.07168 1.30402 6.78571 1.99441 6.78571 2.71429V16.2857C6.78571 17.0056 7.07168 17.696 7.58071 18.205C8.08974 18.714 8.78013 19 9.5 19C10.2199 19 10.9103 18.714 11.4193 18.205C11.9283 17.696 12.2143 17.0056 12.2143 16.2857V2.71429C12.2143 1.99441 11.9283 1.30402 11.4193 0.794996C10.9103 0.285969 10.2199 0 9.5 0ZM10.8571 2.71429V16.2857C10.8571 16.6457 10.7142 16.9908 10.4596 17.2454C10.2051 17.4999 9.85994 17.6429 9.5 17.6429C9.14006 17.6429 8.79487 17.4999 8.54035 17.2454C8.28584 16.9908 8.14286 16.6457 8.14286 16.2857V2.71429C8.14286 2.35435 8.28584 2.00915 8.54035 1.75464C8.79487 1.50013 9.14006 1.35714 9.5 1.35714C9.85994 1.35714 10.2051 1.50013 10.4596 1.75464C10.7142 2.00915 10.8571 2.35435 10.8571 2.71429ZM2.71429 8.14286C1.99441 8.14286 1.30402 8.42883 0.794996 8.93785C0.285969 9.44688 0 10.1373 0 10.8571V16.2857C0 17.0056 0.285969 17.696 0.794996 18.205C1.30402 18.714 1.99441 19 2.71429 19C3.43416 19 4.12455 18.714 4.63358 18.205C5.1426 17.696 5.42857 17.0056 5.42857 16.2857V10.8571C5.42857 10.1373 5.1426 9.44688 4.63358 8.93785C4.12455 8.42883 3.43416 8.14286 2.71429 8.14286ZM4.07143 16.2857C4.07143 16.6457 3.92844 16.9908 3.67393 17.2454C3.41942 17.4999 3.07422 17.6429 2.71429 17.6429C2.35435 17.6429 2.00915 17.4999 1.75464 17.2454C1.50013 16.9908 1.35714 16.6457 1.35714 16.2857V10.8571C1.35714 10.4972 1.50013 10.152 1.75464 9.8975C2.00915 9.64298 2.35435 9.5 2.71429 9.5C3.07422 9.5 3.41942 9.64298 3.67393 9.8975C3.92844 10.152 4.07143 10.4972 4.07143 10.8571V16.2857ZM13.5714 8.14286C13.5714 7.42298 13.8574 6.73259 14.3664 6.22357C14.8755 5.71454 15.5658 5.42857 16.2857 5.42857C17.0056 5.42857 17.696 5.71454 18.205 6.22357C18.714 6.73259 19 7.42298 19 8.14286V16.2857C19 17.0056 18.714 17.696 18.205 18.205C17.696 18.714 17.0056 19 16.2857 19C15.5658 19 14.8755 18.714 14.3664 18.205C13.8574 17.696 13.5714 17.0056 13.5714 16.2857V8.14286ZM17.6429 8.14286C17.6429 7.78292 17.4999 7.43773 17.2454 7.18321C16.9908 6.9287 16.6457 6.78571 16.2857 6.78571C15.9258 6.78571 15.5806 6.9287 15.3261 7.18321C15.0716 7.43773 14.9286 7.78292 14.9286 8.14286V16.2857C14.9286 16.6457 15.0716 16.9908 15.3261 17.2454C15.5806 17.4999 15.9258 17.6429 16.2857 17.6429C16.6457 17.6429 16.9908 17.4999 17.2454 17.2454C17.4999 16.9908 17.6429 16.6457 17.6429 16.2857V8.14286Z" fill="#333333"/>
</svg>
