<svg width="37" height="35" viewBox="0 0 37 35" fill="none" xmlns="http://www.w3.org/2000/svg">
<path d="M1.22173 3.81266C0.56272 3.81266 0 3.24994 0 2.56083C0 1.90181 0.56272 1.33909 1.22173 1.33909H2.91291C2.943 1.33909 3.00619 1.33909 3.03929 1.33909C4.16774 1.36919 5.1698 1.58886 6.01238 2.12149C6.95125 2.71731 7.64036 3.62308 8.01651 4.9712C8.01651 5.00129 8.01651 5.03439 8.0466 5.06448L8.35956 6.31932H9.06371V1.23979C9.06371 0.556702 9.62041 0 10.3035 0H16.8244C17.5075 0 18.0642 0.556702 18.0642 1.23979V4.25501C19.0934 3.22887 20.4896 2.59995 22.0303 2.59995C22.6984 2.59995 23.3424 2.72032 23.9382 2.93698C25.1659 1.634 26.9083 0.818502 28.8402 0.818502C32.1382 0.818502 34.8796 3.18975 35.4574 6.31932H35.7553C36.4444 6.31932 36.977 6.88204 36.977 7.54105C36.977 7.66744 36.9439 7.79082 36.9138 7.9172L33.7211 20.7845C33.5947 21.3473 33.0952 21.7234 32.5325 21.7234H12.4912C12.9305 23.3514 13.3669 24.2271 13.9627 24.6363C14.6819 25.1058 15.9367 25.1358 18.0341 25.1058H18.0642H32.2165C32.9056 25.1058 33.4382 25.6685 33.4382 26.3275C33.4382 27.0166 32.8755 27.5492 32.2165 27.5492H18.0672C15.4673 27.5793 13.8724 27.5191 12.5875 26.6735C11.2725 25.7979 10.5834 24.2933 9.89425 21.5699L5.69942 5.69341C5.69942 5.66331 5.69942 5.66331 5.66933 5.63021C5.48276 4.94111 5.1698 4.47167 4.73046 4.22191C4.29112 3.93904 3.69831 3.81567 3.0092 3.81567C2.97911 3.81567 2.94601 3.81567 2.91591 3.81567H1.22173V3.81266ZM25.3916 11.3417C25.3916 10.9565 25.7738 10.6435 26.2432 10.6435C26.7127 10.6435 27.0948 10.9565 27.0948 11.3417V16.0631C27.0948 16.4483 26.7127 16.7612 26.2432 16.7612C25.7738 16.7612 25.3916 16.4483 25.3916 16.0631V11.3417ZM20.291 11.3417C20.291 10.9565 20.6732 10.6435 21.1426 10.6435C21.6121 10.6435 21.9942 10.9565 21.9942 11.3417V16.0631C21.9942 16.4483 21.6121 16.7612 21.1426 16.7612C20.6732 16.7612 20.291 16.4483 20.291 16.0631V11.3417ZM15.1934 11.3417C15.1934 10.9565 15.5756 10.6435 16.0451 10.6435C16.5145 10.6435 16.8967 10.9565 16.8967 11.3417V16.0631C16.8967 16.4483 16.5145 16.7612 16.0451 16.7612C15.5756 16.7612 15.1934 16.4483 15.1934 16.0631V11.3417ZM25.7497 4.0233C26.4448 4.64019 26.9955 5.42559 27.3416 6.31932H33.3148C32.8093 4.3182 30.9978 2.83467 28.8402 2.83467C27.6515 2.83467 26.5682 3.28304 25.7497 4.0233ZM27.7478 8.75978H16.3099H9.04866L11.8352 19.2498H31.5906L34.1875 8.75978H27.7478ZM16.6439 6.31932C16.677 6.23205 16.7131 6.14779 16.7492 6.06354V2.16662C16.7492 1.67311 16.343 1.26687 15.8495 1.26687H11.3477C10.8542 1.26687 10.4479 1.67011 10.4479 2.16662V6.31932H16.6439ZM28.5543 28.9876C30.2154 28.9876 31.5605 30.3327 31.5605 31.9938C31.5605 33.6549 30.2154 35 28.5543 35C26.8962 35 25.5481 33.6549 25.5481 31.9938C25.5481 30.3327 26.8962 28.9876 28.5543 28.9876ZM15.374 28.9876C17.0321 28.9876 18.3802 30.3327 18.3802 31.9938C18.3802 33.6549 17.0351 35 15.374 35C13.7129 35 12.3678 33.6549 12.3678 31.9938C12.3678 30.3327 13.7129 28.9876 15.374 28.9876Z" fill="#AE4603"/>
</svg>
