<svg width="17" height="18" viewBox="0 0 17 18" fill="none" xmlns="http://www.w3.org/2000/svg">
<g clip-path="url(#clip0_982_2262)">
<path d="M13.5054 5.81221L17 9.30684V17.4997H7.4375V5.81221H13.5054ZM13.8125 8.99971H15.1821L13.8125 7.63009V8.99971ZM15.9375 16.4372V10.0622H12.75V6.87471H8.5V16.4372H15.9375ZM9.5625 11.1247H10.625V15.3747H9.5625V11.1247ZM11.6875 13.2497H12.75V15.3747H11.6875V13.2497ZM13.8125 12.1872H14.875V15.3747H13.8125V12.1872ZM5.04688 1.56222C5.2959 1.56222 5.50895 1.58712 5.68604 1.63692C5.86312 1.68673 6.0236 1.75313 6.16748 1.83614C6.31136 1.91915 6.43864 2.00492 6.54932 2.09347C6.65999 2.18201 6.77067 2.26778 6.88135 2.35079C6.99202 2.4338 7.11377 2.49744 7.24658 2.54171C7.37939 2.58598 7.53158 2.61365 7.70312 2.62472H15.9375C16.0869 2.62472 16.2253 2.65238 16.3525 2.70772C16.4798 2.76306 16.5905 2.83777 16.6846 2.93184C16.7786 3.02592 16.8561 3.13936 16.917 3.27218C16.9779 3.40499 17.0055 3.54334 17 3.68722V7.43087L15.9375 6.36837V3.68722H7.70312C7.53158 3.68722 7.38216 3.71212 7.25488 3.76192C7.1276 3.81173 7.00586 3.87813 6.88965 3.96114C6.77344 4.04415 6.65999 4.12992 6.54932 4.21847C6.43864 4.30701 6.31413 4.39278 6.17578 4.47579C6.03744 4.5588 5.87695 4.62244 5.69434 4.66671C5.51172 4.71098 5.2959 4.73865 5.04688 4.74972H1.0625V14.3122H6.375V15.3747H0V2.62472C0 2.4753 0.0276693 2.33695 0.0830078 2.20968C0.138346 2.0824 0.213053 1.97172 0.307129 1.87764C0.401204 1.78357 0.514648 1.7061 0.647461 1.64522C0.780273 1.58435 0.91862 1.55668 1.0625 1.56222H5.04688ZM5.04688 3.68722C5.17969 3.68722 5.2959 3.67615 5.39551 3.65401C5.49512 3.63188 5.58643 3.59591 5.66943 3.5461C5.75244 3.4963 5.83268 3.44096 5.91016 3.38009C5.98763 3.31921 6.07617 3.24451 6.17578 3.15597C6.08171 3.07296 5.99593 3.00102 5.91846 2.94014C5.84098 2.87927 5.75798 2.82393 5.66943 2.77413C5.58089 2.72432 5.48958 2.68835 5.39551 2.66622C5.30143 2.64408 5.18522 2.63025 5.04688 2.62472H1.0625V3.68722H5.04688Z" fill="#202224"/>
</g>
<defs>
<clipPath id="clip0_982_2262">
<rect width="17" height="17" fill="white" transform="translate(0 0.5)"/>
</clipPath>
</defs>
</svg>
