<svg width="25" height="36" viewBox="0 0 25 36" fill="none" xmlns="http://www.w3.org/2000/svg">
<g clip-path="url(#clip0_1700_168)">
<path d="M1.68472 2.61841H4.19948V0.546387H5.40588V2.61841H9.16331V0.546387H10.3697V2.61841H14.1271V0.546387H15.3342V2.61841H19.091V0.546387H20.2981V2.61841H22.8128C23.2747 2.61841 23.6956 2.80796 24.0021 3.11384C24.308 3.41766 24.4975 3.83918 24.4975 4.30245V33.8617C24.4975 34.3249 24.3066 34.7458 24.0021 35.0503C23.6962 35.3555 23.2733 35.5464 22.8128 35.5464H1.68472C1.22351 35.5464 0.801302 35.3562 0.495425 35.0503C0.190917 34.7458 0 34.3256 0 33.8617V4.30245C0 3.84055 0.189548 3.41972 0.494056 3.11452L0.496794 3.11247C0.801302 2.80796 1.22214 2.61841 1.68472 2.61841ZM20.3049 30.1104H4.19264V28.904H20.3049V30.1104ZM20.3049 25.2218H4.19264V24.0154H20.3049V25.2218ZM20.3049 20.3333H4.19264V19.1269H20.3049V20.3333ZM20.3049 15.4447H4.19264V14.2376H20.3049V15.4447ZM20.3049 10.5562H4.19264V9.34908H20.3049V10.5562ZM20.2981 3.82481V5.09212H19.091V3.82481H15.3342V5.09212H14.1271V3.82481H10.3697V5.09212H9.16331V3.82481H5.40588V5.09212H4.19948V3.82481H1.68472C1.55265 3.82481 1.4329 3.87887 1.346 3.96441C1.25688 4.05438 1.20673 4.17581 1.2064 4.30245V33.8617C1.2064 33.991 1.26183 34.1101 1.34873 34.197C1.43632 34.2846 1.55607 34.3393 1.68472 34.3393H22.8128C22.9415 34.3393 23.0612 34.2846 23.1488 34.197C23.2357 34.1101 23.2911 33.9903 23.2911 33.8617V4.30245C23.2911 4.17243 23.2364 4.05268 23.1495 3.96578C23.1057 3.92087 23.0533 3.88525 22.9955 3.86103C22.9377 3.83681 22.8755 3.82449 22.8128 3.82481H20.2981Z" fill="#AE4603"/>
</g>
<defs>
<clipPath id="clip0_1700_168">
<rect width="24.4975" height="35" fill="white" transform="translate(0 0.546387)"/>
</clipPath>
</defs>
</svg>
