<svg width="37" height="36" viewBox="0 0 37 36" fill="none" xmlns="http://www.w3.org/2000/svg">
<path d="M34.1548 10.3951C34.3601 10.2184 34.6223 10.1215 34.8932 10.1223C35.1175 10.1252 35.3368 10.1887 35.5279 10.3062C35.6742 10.3968 35.8061 10.5087 35.9193 10.6383C36.2347 11.0071 36.4183 11.4704 36.4413 11.955V33.7937C36.4412 34.023 36.3959 34.25 36.3078 34.4617C36.2198 34.6735 36.0908 34.8657 35.9282 35.0274C35.6028 35.3563 35.1602 35.5429 34.6975 35.5464H1.75267C1.2888 35.5458 0.844097 35.3613 0.516014 35.0333C0.352615 34.8709 0.222916 34.6777 0.134364 34.465C0.0458112 34.2523 0.000149472 34.0241 0 33.7937L0 11.955C0.0233148 11.4629 0.211312 10.993 0.533808 10.6205C0.647572 10.4973 0.779599 10.3923 0.925267 10.3091C1.11265 10.1939 1.32807 10.1324 1.54804 10.1312C1.75848 10.1311 1.96446 10.1919 2.14116 10.3062L2.20047 10.3566V2.64603C2.20212 2.08968 2.42388 1.55659 2.81732 1.16323C3.21068 0.769793 3.74377 0.548028 4.30012 0.546387H32.0403C32.5968 0.54738 33.1301 0.769243 33.5231 1.16323C33.5455 1.18545 33.5664 1.20924 33.5854 1.23441C33.9424 1.61891 34.1405 2.12433 34.14 2.649V10.4189L34.1548 10.3951ZM21.0113 13.2747C20.7753 13.2747 20.549 13.181 20.3822 13.0142C20.2153 12.8473 20.1216 12.621 20.1216 12.3851C20.1216 12.1491 20.2153 11.9228 20.3822 11.756C20.549 11.5891 20.7753 11.4954 21.0113 11.4954H24.8043C25.0402 11.4954 25.2665 11.5891 25.4334 11.756C25.6002 11.9228 25.6939 12.1491 25.6939 12.3851C25.6939 12.621 25.6002 12.8473 25.4334 13.0142C25.2665 13.181 25.0402 13.2747 24.8043 13.2747H21.0113ZM11.5658 13.2747C11.3299 13.2747 11.1036 13.181 10.9367 13.0142C10.7699 12.8473 10.6762 12.621 10.6762 12.3851C10.6762 12.1491 10.7699 11.9228 10.9367 11.756C11.1036 11.5891 11.3299 11.4954 11.5658 11.4954H15.3529C15.5889 11.4954 15.8152 11.5891 15.982 11.756C16.1489 11.9228 16.2426 12.1491 16.2426 12.3851C16.2426 12.621 16.1489 12.8473 15.982 13.0142C15.8152 13.181 15.5889 13.2747 15.3529 13.2747H11.5658ZM16.0735 18.3163C15.8356 18.3163 15.6074 18.2217 15.4392 18.0535C15.271 17.8853 15.1765 17.6571 15.1765 17.4192C15.1765 17.1812 15.271 16.9531 15.4392 16.7848C15.6074 16.6166 15.8356 16.5221 16.0735 16.5221H20.2906C20.5286 16.5221 20.7567 16.6166 20.925 16.7848C21.0932 16.9531 21.1877 17.1812 21.1877 17.4192C21.1877 17.6571 21.0932 17.8853 20.925 18.0535C20.7567 18.2217 20.5286 18.3163 20.2906 18.3163H16.0735ZM8.26216 8.25398C8.02423 8.25398 7.79606 8.15946 7.62782 7.99123C7.45958 7.82299 7.36506 7.59481 7.36506 7.35688C7.36506 7.11896 7.45958 6.89078 7.62782 6.72254C7.79606 6.55431 8.02423 6.45979 8.26216 6.45979H12.5415C12.7794 6.45979 13.0076 6.55431 13.1759 6.72254C13.3441 6.89078 13.4386 7.11896 13.4386 7.35688C13.4386 7.59481 13.3441 7.82299 13.1759 7.99123C13.0076 8.15946 12.7794 8.25398 12.5415 8.25398H8.26216ZM23.8256 8.25398C23.5877 8.25398 23.3595 8.15946 23.1913 7.99123C23.023 7.82299 22.9285 7.59481 22.9285 7.35688C22.9285 7.11896 23.023 6.89078 23.1913 6.72254C23.3595 6.55431 23.5877 6.45979 23.8256 6.45979H28.105C28.3429 6.45979 28.5711 6.55431 28.7393 6.72254C28.9076 6.89078 29.0021 7.11896 29.0021 7.35688C29.0021 7.59481 28.9076 7.82299 28.7393 7.99123C28.5711 8.15946 28.3429 8.25398 28.105 8.25398H23.8256ZM16.6756 8.25398C16.4376 8.25398 16.2095 8.15946 16.0412 7.99123C15.873 7.82299 15.7785 7.59481 15.7785 7.35688C15.7785 7.11896 15.873 6.89078 16.0412 6.72254C16.2095 6.55431 16.4376 6.45979 16.6756 6.45979H19.6412C19.8791 6.45979 20.1073 6.55431 20.2755 6.72254C20.4437 6.89078 20.5383 7.11896 20.5383 7.35688C20.5383 7.59481 20.4437 7.82299 20.2755 7.99123C20.1073 8.15946 19.8791 8.25398 19.6412 8.25398H16.6756ZM4.06584 11.9847L14.4247 21.2403L14.4692 21.2819L18.0427 24.4728L32.3013 12.0173V2.62527C32.3005 2.57087 32.2829 2.51804 32.2509 2.47403L32.2272 2.4503C32.1809 2.40344 32.118 2.37678 32.0522 2.37616H4.31198C4.25134 2.38051 4.19438 2.40687 4.15184 2.4503C4.12904 2.47334 4.11101 2.50066 4.0988 2.53069C4.08659 2.56071 4.08042 2.59286 4.08066 2.62527V11.9847H4.06584ZM33.9739 12.8002C33.8949 12.9067 33.7937 12.9947 33.6773 13.0582L23.6803 21.7919L34.745 31.4894V12.1241L33.9739 12.8002ZM17.4733 26.2285L13.882 23.0197L1.69632 33.6959V33.7937C1.69121 33.8061 1.69121 33.8199 1.69632 33.8323C1.70867 33.8374 1.72253 33.8374 1.73488 33.8323H34.6975C34.7099 33.8374 34.7237 33.8374 34.7361 33.8323C34.7412 33.8199 34.7412 33.8061 34.7361 33.7937V33.7374L22.3962 22.9129L18.5943 26.2344C18.4397 26.3714 18.2403 26.447 18.0338 26.447C17.8273 26.447 17.6279 26.3714 17.4733 26.2344V26.2285ZM12.6097 21.875L1.69632 12.133V31.4479L12.6097 21.875Z" fill="#AE4603"/>
</svg>
