<svg width="45" height="30" viewBox="0 0 45 30" fill="none" xmlns="http://www.w3.org/2000/svg">
<path d="M21.9844 20.0525C23.033 19.9638 23.751 19.3586 24.2395 18.4857L24.243 18.4795C24.7377 17.594 25.0002 16.4301 25.132 15.2466C25.2009 14.6208 25.2419 13.9663 25.2838 13.3038C25.4888 10.0306 25.7112 6.49785 29.3334 4.99466C29.882 4.76736 30.4597 4.62233 31.0486 4.56403C32.3005 4.43869 33.5785 4.7028 34.6812 5.35098C35.7848 5.99917 36.7139 7.03144 37.2688 8.43793C37.5235 9.08522 37.6988 9.8113 37.7756 10.6153V10.6296C37.7651 12.6037 38.0731 15.3764 38.9089 17.4105C39.5108 18.8734 40.3849 19.9504 41.6072 20.0525C41.6569 20.0561 41.6944 20.1017 41.6909 20.1527L41.6857 20.1769C41.4589 20.8341 40.412 21.3399 39.1601 21.5861C41.0218 22.0508 42.3138 22.6112 43.1888 23.6005C44.2654 24.8172 44.6667 26.6292 44.6667 29.6392C44.6667 29.838 44.5096 29.9991 44.316 29.9991H29.7269C29.7513 29.8756 29.7653 29.7475 29.7653 29.6159V28.3634C29.7653 27.2667 29.4922 26.2049 29.0202 25.2344C29.9066 25.6068 30.7964 25.8127 31.6872 25.8405C34.006 25.9121 36.3754 24.776 38.8015 22.2352C38.4491 22.1501 38.074 22.0678 37.677 21.9863L37.6203 21.9738C37.281 21.9048 36.8029 21.8072 36.31 21.6667C36.1399 21.6398 35.975 21.6076 35.8162 21.5673C35.3224 21.4446 34.8871 21.2557 34.5617 20.9934C34.0644 20.5941 33.8176 20.0301 33.9833 19.2754C32.495 20.2288 30.9317 20.2253 29.4512 19.2431L29.3561 19.1885C29.3483 19.6362 29.0717 20.9612 28.6495 21.2253C28.0074 21.6255 26.9998 21.8126 26.2129 21.9451C25.241 21.2486 24.1444 20.7517 23.019 20.5288C22.6614 20.458 22.3019 20.3864 21.9573 20.3032C21.9373 20.262 21.9189 20.2199 21.9041 20.1769C21.8875 20.1277 21.9128 20.074 21.9599 20.057L21.9844 20.0525ZM17.0867 18.1446C17.1051 18.1222 17.1251 18.1025 17.1478 18.0846L17.2769 17.9593C18.2322 17.0389 18.9362 16.3603 18.8001 14.7058C18.7958 14.6235 18.815 14.5384 18.8621 14.465C18.9163 14.3806 19.001 14.3217 19.0974 14.3013C19.1939 14.2808 19.2944 14.3004 19.3768 14.3558C19.4431 14.4005 19.5103 14.4363 19.5783 14.4614C19.6341 14.4829 19.6882 14.4954 19.738 14.4981C19.8348 14.5035 19.8845 14.5035 19.8976 14.4999C19.9107 14.4892 19.9351 14.4229 19.97 14.3209L20.4446 12.9421C20.5039 12.7084 20.5092 12.5419 20.4743 12.4309C20.4594 12.3826 20.4341 12.3467 20.4018 12.3253L20.3879 12.3172C20.3303 12.2859 20.2483 12.2751 20.1541 12.2832C19.9456 12.2993 19.7022 12.4023 19.4858 12.5706C19.4073 12.6315 19.3044 12.661 19.1988 12.6422C19.1014 12.625 19.0146 12.5689 18.9573 12.4862C18.9001 12.4035 18.8771 12.3009 18.8935 12.2008C19.2451 10.0969 19.0845 8.72711 18.6475 7.79243C18.2654 6.97324 17.6547 6.47636 16.9934 6.10571C15.5252 7.26063 14.4914 7.39224 13.4611 7.52295C12.6079 7.63038 11.7564 7.73961 10.6293 8.5391C10.0927 8.92049 9.73681 9.38067 9.55448 9.91694C9.37128 10.4568 9.35732 11.0835 9.50563 11.7926C9.52831 11.8696 9.52743 11.9537 9.49865 12.0343C9.42798 12.233 9.21337 12.3342 9.0197 12.2617C8.90803 12.2196 8.79201 12.1713 8.67947 12.1346C8.23891 11.977 7.92659 11.9036 7.8062 12.1883C7.7966 12.2787 7.7905 12.4193 7.78613 12.5643V12.567C7.7809 12.7729 7.7809 12.9887 7.78613 13.1006V13.106C7.79922 13.371 7.85592 13.7219 7.97981 14.0165C8.05745 14.2027 8.16039 14.3594 8.28863 14.4346C8.35232 14.4713 8.42473 14.4883 8.49975 14.4892C8.59223 14.491 8.69517 14.4713 8.80335 14.4381C8.85871 14.4186 8.91777 14.4128 8.97575 14.421C9.03373 14.4293 9.089 14.4514 9.13708 14.4857C9.18517 14.52 9.22471 14.5654 9.25251 14.6182C9.28032 14.6711 9.2956 14.7299 9.29712 14.79C9.33725 16.5224 10.0866 17.1849 10.9974 17.9897L11.3769 18.3282C11.9754 18.8743 12.5948 19.2485 13.2159 19.441C13.694 19.5431 14.1939 19.5538 14.6737 19.4902C15.0078 19.4455 15.3297 19.3649 15.6281 19.2548C16.0591 19.0462 16.4822 18.7409 16.8913 18.3353L17.0867 18.1446ZM17.7925 18.5117C18.5768 21.1975 20.6775 21.6165 22.7399 22.0248C25.5376 22.5799 28.2778 25.2917 28.2778 28.3634V29.6159C28.2778 29.8272 28.1095 30 27.9045 30H0.373385C0.1675 30 0 29.8272 0 29.6159V28.4834C0 24.7912 2.90944 22.6103 5.84941 22.2065C7.99464 21.9129 10.159 21.6139 10.9233 18.9387L10.8814 18.9002L10.5098 18.5672C9.54139 17.7113 8.73094 16.9951 8.57652 15.252L8.49103 15.2528C8.293 15.2502 8.10107 15.2036 7.92135 15.0989C7.63259 14.9305 7.4302 14.6432 7.2941 14.3191C7.13184 13.9332 7.05943 13.4838 7.04198 13.1444V13.1373C7.03675 13.0128 7.03675 12.7747 7.04198 12.5464V12.5428C7.04809 12.345 7.05768 12.1525 7.07251 12.0432C7.07688 12.0101 7.0856 11.9797 7.09694 11.9501C7.30021 11.37 7.61078 11.182 8.02081 11.1936L7.75124 11.0101C7.60467 9.13267 8.03302 5.87562 6.04658 5.25966C9.80486 0.493162 14.1363 -2.09869 17.3895 2.14049C21.3083 2.35178 22.8795 8.74233 19.7545 11.4327L19.7362 11.5902C19.8592 11.5526 19.9814 11.5285 20.0983 11.5195C20.3303 11.5007 20.551 11.5392 20.7377 11.6404L20.7735 11.6628C20.9619 11.7765 21.1067 11.9537 21.1835 12.1972C21.2612 12.4452 21.2638 12.7631 21.1617 13.1516L20.6732 14.5751C20.5946 14.8052 20.5222 14.9673 20.3635 15.0971L20.3329 15.1195C20.1759 15.234 19.9848 15.277 19.7004 15.2618L19.5643 15.2466C19.5329 16.8294 18.7792 17.56 17.7925 18.5117ZM17.2324 19.116C16.0905 20.7347 12.7579 20.7696 11.513 19.4849C11.2024 20.8126 10.3963 21.7302 9.20378 22.3274C12.6236 24.4671 15.9936 24.4036 19.3105 21.8789C18.035 21.2853 17.3903 20.3372 17.2324 19.116ZM34.5774 17.9118C36.1626 16.1123 36.5848 14.8992 36.3754 12.4748C36.3414 12.0871 36.2856 11.6932 36.2079 11.2939C34.915 10.6788 34.0688 9.32695 33.6361 7.29555C33.1188 11.1632 28.4907 10.9967 27.3269 11.7004C27.3269 12.0262 27.3191 12.3333 27.3121 12.6288C27.2589 14.619 27.4028 15.6781 28.379 17.2672C28.5422 17.5331 28.7018 17.7901 28.8946 18.0032C30.4492 19.7239 33.1074 19.509 34.5774 17.9118Z" fill="#AE4603"/>
</svg>
