<svg width="35" height="30" viewBox="0 0 35 30" fill="none" xmlns="http://www.w3.org/2000/svg">
<g clip-path="url(#clip0_1700_160)">
<path d="M35 30H2.73153V29.9943C1.97673 29.9943 1.29313 29.6886 0.800374 29.1989C0.310465 28.712 0.00569661 28.0355 0.00569661 27.2882H0V0H3.49203V26.5324H35V30ZM23.7463 12.9081H29.3148C29.611 12.9081 29.8531 13.1487 29.8531 13.4431V24.3301C29.8531 24.6245 29.611 24.8651 29.3148 24.8651H23.7463C23.4501 24.8651 23.208 24.6245 23.208 24.3301V13.4459C23.208 13.1515 23.4501 12.9081 23.7463 12.9081ZM7.22331 6.2474H12.7917C13.088 6.2474 13.3301 6.48802 13.3301 6.78241V24.3329C13.3301 24.6273 13.088 24.8679 12.7917 24.8679H7.22331C6.92708 24.8679 6.68498 24.6273 6.68498 24.3329V6.78241C6.68498 6.48802 6.92708 6.2474 7.22331 6.2474ZM15.4862 2.49953H21.0518C21.3481 2.49953 21.5902 2.74014 21.5902 3.03453V24.3329C21.5902 24.6273 21.3481 24.8679 21.0518 24.8679H15.4862C15.19 24.8679 14.9479 24.6273 14.9479 24.3329V3.03453C14.9479 2.74014 15.19 2.49953 15.4862 2.49953Z" fill="#AE4603"/>
</g>
<defs>
<clipPath id="clip0_1700_160">
<rect width="35" height="30" fill="white"/>
</clipPath>
</defs>
</svg>
