<svg width="29" height="36" viewBox="0 0 29 36" fill="none" xmlns="http://www.w3.org/2000/svg">
<g clip-path="url(#clip0_1700_199)">
<path d="M18.7191 4.16943C18.6308 4.16943 18.5539 4.15804 18.477 4.13241C18.0839 4.13241 17.7535 3.8134 17.7535 3.40894V1.98478H10.7381V3.40894C10.7381 3.77637 10.4447 4.09538 10.0887 4.12101C10.0118 4.14665 9.9235 4.15804 9.8352 4.15804H7.19198V7.10604H21.0319V4.15519H18.6934L18.7191 4.16943ZM6.50838 21.9172C7.29451 21.9172 7.93254 22.5553 7.93254 23.3414C7.93254 24.1275 7.29451 24.7655 6.50838 24.7655C5.72225 24.7655 5.08423 24.1275 5.08423 23.3414C5.08423 22.5553 5.72225 21.9172 6.50838 21.9172ZM4.86206 18.4053C4.66553 18.1119 4.74243 17.7131 5.03866 17.5166C5.33203 17.3201 5.73079 17.397 5.92733 17.6932L6.27767 18.2116L7.66479 16.5254C7.88981 16.252 8.29427 16.2121 8.56771 16.4371C8.84115 16.6621 8.88102 17.0666 8.65601 17.34L6.73625 19.6756C6.69352 19.7297 6.64225 19.7782 6.58244 19.8209C6.28906 20.0174 5.8903 19.9405 5.69377 19.6443L4.86206 18.4053ZM4.86206 13.472C4.66553 13.1786 4.74243 12.7799 5.03866 12.5833C5.33203 12.3868 5.73079 12.4637 5.92733 12.7599L6.27767 13.2783L7.66479 11.5893C7.88981 11.3158 8.29427 11.276 8.56771 11.501C8.84115 11.726 8.88102 12.1305 8.65601 12.4039L6.73625 14.7395C6.69352 14.7936 6.64225 14.842 6.58244 14.8848C6.28906 15.0813 5.8903 15.0044 5.69377 14.7082L4.86206 13.472ZM19.7103 35.3556C19.5821 35.4695 19.4055 35.5464 19.2261 35.5464C19.189 35.5464 19.1492 35.5464 19.1121 35.535H1.60075C1.16781 35.535 0.763346 35.3584 0.469971 35.065C0.176595 34.7717 0 34.3786 0 33.9314V6.20028C0 5.75594 0.176595 5.36287 0.469971 5.0695C0.763346 4.77612 1.15641 4.59953 1.60075 4.59953H5.76782V3.81055C5.76782 3.51717 5.88175 3.25228 6.08683 3.0472C6.27767 2.85636 6.54541 2.72819 6.85018 2.72819H9.31681V1.73983C9.31681 1.40942 9.45638 1.11605 9.67285 0.902425C9.88647 0.685954 10.1799 0.546387 10.5103 0.546387H18.0212C18.3516 0.546387 18.645 0.685954 18.8586 0.902425C19.0751 1.1189 19.2147 1.40942 19.2147 1.73983V2.73104H21.4392C21.7326 2.73104 21.9975 2.85921 22.2026 3.05005C22.3934 3.24089 22.5216 3.52002 22.5216 3.8134V4.60238H26.6886C27.133 4.60238 27.526 4.77897 27.8194 5.07235C28.1128 5.36572 28.2894 5.75879 28.2894 6.20313V26.2068C28.3464 26.4945 28.2865 26.7166 28.0729 26.9303L19.7986 35.3043C19.7729 35.3299 19.7616 35.3413 19.7359 35.3556H19.7103ZM18.5026 34.0966C18.5026 24.5206 17.2949 25.6571 26.8254 25.6571V6.20028C26.8254 6.16325 26.814 6.11198 26.7741 6.08635C26.7485 6.06071 26.7114 6.03508 26.6602 6.03508H22.4931V7.48486C22.4931 7.77824 22.3791 8.04313 22.1741 8.24821C21.9832 8.43905 21.7155 8.56722 21.4107 8.56722H6.83594C6.54256 8.56722 6.26343 8.43905 6.07259 8.24821C6.04696 8.22258 6.03556 8.19694 6.00993 8.17131C5.85612 7.98047 5.75643 7.73836 5.75643 7.48486V6.03508H1.58936C1.55233 6.03508 1.50106 6.04647 1.47542 6.08635C1.44979 6.11198 1.42415 6.16325 1.42415 6.20028V33.9314C1.42415 33.9827 1.43555 34.0197 1.47542 34.0453C1.50106 34.071 1.53809 34.0966 1.58936 34.0966H18.4912H18.5026ZM11.7436 23.8455C11.3505 23.8455 11.0201 23.5265 11.0201 23.1221C11.0201 22.729 11.3391 22.3986 11.7436 22.3986H18.6165C19.0096 22.3986 19.34 22.7176 19.34 23.1221C19.34 23.5151 19.021 23.8455 18.6165 23.8455H11.7436ZM11.7436 13.5119C11.3505 13.5119 11.0201 13.1929 11.0201 12.7884C11.0201 12.3953 11.3391 12.0649 11.7436 12.0649H22.3279C22.7209 12.0649 23.0514 12.384 23.0514 12.7884C23.0514 13.1815 22.7323 13.5119 22.3279 13.5119H11.7436ZM11.7436 18.6787C11.3505 18.6787 11.0201 18.3597 11.0201 17.9552C11.0201 17.5622 11.3391 17.2318 11.7436 17.2318H22.3279C22.7209 17.2318 23.0514 17.5508 23.0514 17.9552C23.0514 18.3483 22.7323 18.6787 22.3279 18.6787H11.7436Z" fill="#AE4603"/>
</g>
<defs>
<clipPath id="clip0_1700_199">
<rect width="28.3093" height="35" fill="white" transform="translate(0 0.546387)"/>
</clipPath>
</defs>
</svg>
