<svg width="14" height="11" viewBox="0 0 14 11" fill="none" xmlns="http://www.w3.org/2000/svg">
<path d="M0.75 1.54167C0.75 1.3317 0.815848 1.13034 0.933058 0.981874C1.05027 0.833408 1.20924 0.75 1.375 0.75H12.625C12.7908 0.75 12.9497 0.833408 13.0669 0.981874C13.1842 1.13034 13.25 1.3317 13.25 1.54167C13.25 1.75163 13.1842 1.95299 13.0669 2.10146C12.9497 2.24993 12.7908 2.33333 12.625 2.33333H1.375C1.20924 2.33333 1.05027 2.24993 0.933058 2.10146C0.815848 1.95299 0.75 1.75163 0.75 1.54167ZM0.75 5.5C0.75 5.29004 0.815848 5.08867 0.933058 4.94021C1.05027 4.79174 1.20924 4.70833 1.375 4.70833H12.625C12.7908 4.70833 12.9497 4.79174 13.0669 4.94021C13.1842 5.08867 13.25 5.29004 13.25 5.5C13.25 5.70996 13.1842 5.91133 13.0669 6.05979C12.9497 6.20826 12.7908 6.29167 12.625 6.29167H1.375C1.20924 6.29167 1.05027 6.20826 0.933058 6.05979C0.815848 5.91133 0.75 5.70996 0.75 5.5ZM0.75 9.45833C0.75 9.24837 0.815848 9.04701 0.933058 8.89854C1.05027 8.75007 1.20924 8.66667 1.375 8.66667H8.875C9.04076 8.66667 9.19973 8.75007 9.31694 8.89854C9.43415 9.04701 9.5 9.24837 9.5 9.45833C9.5 9.6683 9.43415 9.86966 9.31694 10.0181C9.19973 10.1666 9.04076 10.25 8.875 10.25H1.375C1.20924 10.25 1.05027 10.1666 0.933058 10.0181C0.815848 9.86966 0.75 9.6683 0.75 9.45833Z" fill="#333333"/>
</svg>
