<svg width="30" height="36" viewBox="0 0 30 36" fill="none" xmlns="http://www.w3.org/2000/svg">
<path d="M25.4094 0.546387H10.3661C8.16724 0.546387 6.37863 2.33221 6.37305 4.52944H5.18821C2.32747 4.52944 0 6.85691 0 9.71765V30.3582C0 33.2193 2.32747 35.5464 5.18821 35.5464H20.2315C23.0922 35.5464 25.4193 33.2189 25.4193 30.3582V29.1733C27.6165 29.1674 29.4024 27.3788 29.4024 25.1803V4.5398C29.4024 2.33779 27.611 0.546387 25.4094 0.546387ZM23.0301 12.5159V27.56V30.3582C23.0301 31.9038 21.7772 33.1568 20.2319 33.1568H5.18821C3.64214 33.1568 2.3896 31.9038 2.3896 30.3582V9.71765C2.3896 8.17198 3.64254 6.91904 5.18821 6.91904H20.2315C21.7768 6.91904 23.0297 8.17198 23.0297 9.71765L23.0301 12.5159ZM27.0128 25.1803C27.0128 26.0613 26.2987 26.7778 25.4193 26.7829V12.5159V9.71765C25.4193 6.85691 23.0919 4.52944 20.2315 4.52944H8.76304C8.76862 3.65007 9.4851 2.93598 10.3661 2.93598H25.4098C26.2939 2.93598 27.0132 3.65565 27.0132 4.5398V25.1803H27.0128Z" fill="#AE4603"/>
<path d="M19.8776 11.4243H5.54004V13.8139H19.8776V11.4243Z" fill="#AE4603"/>
<path d="M19.8776 16.5513H5.54004V18.9409H19.8776V16.5513Z" fill="#AE4603"/>
<path d="M19.8776 21.6787H5.54004V24.0683H19.8776V21.6787Z" fill="#AE4603"/>
<path d="M19.8776 26.8066H5.54004V29.1962H19.8776V26.8066Z" fill="#AE4603"/>
</svg>
