<svg width="21" height="19" viewBox="0 0 21 19" fill="none" xmlns="http://www.w3.org/2000/svg">
<path d="M7.07032 4.25756H9.06459V13.3869C9.06459 13.5057 9.16174 13.6028 9.28048 13.6028H10.8996C11.0184 13.6028 11.1155 13.5057 11.1155 13.3869V4.25756H13.1152C13.296 4.25756 13.3958 4.04977 13.2852 3.90944L10.2628 0.0828331C10.2426 0.0570298 10.2168 0.0361615 10.1873 0.02181C10.1579 0.00745844 10.1255 0 10.0928 0C10.06 0 10.0277 0.00745844 9.99819 0.02181C9.96874 0.0361615 9.94294 0.0570298 9.92274 0.0828331L6.90031 3.90675C6.78967 4.04977 6.88952 4.25756 7.07032 4.25756ZM19.9696 12.5773H18.3505C18.2317 12.5773 18.1346 12.6745 18.1346 12.7932V16.9491H2.05093V12.7932C2.05093 12.6745 1.95378 12.5773 1.83505 12.5773H0.215888C0.0971495 12.5773 0 12.6745 0 12.7932V18.1364C0 18.6141 0.385899 19 0.863551 19H19.322C19.7996 19 20.1855 18.6141 20.1855 18.1364V12.7932C20.1855 12.6745 20.0884 12.5773 19.9696 12.5773Z" fill="#333333"/>
</svg>
