<svg width="26" height="25" viewBox="0 0 26 25" fill="none" xmlns="http://www.w3.org/2000/svg">
<path fill-rule="evenodd" clip-rule="evenodd" d="M13.1661 12.3948C11.9753 12.3948 11.0036 11.4249 11.0036 10.2327C11.0036 9.04086 11.9753 8.07102 13.1661 8.07102C14.3593 8.07102 15.3287 9.04086 15.3287 10.2327C15.3287 11.4249 14.3593 12.3948 13.1661 12.3948ZM13.1661 7.36272C11.5847 7.36272 10.2962 8.65027 10.2962 10.2327C10.2962 11.8155 11.5846 13.1031 13.1661 13.1031C14.7499 13.1031 16.0361 11.8155 16.0361 10.2327C16.036 8.65027 14.7499 7.36272 13.1661 7.36272ZM18.2676 16.884C19.2822 15.706 19.8943 14.1732 19.8943 12.5C19.8943 8.78985 16.8767 5.77106 13.1661 5.77106C11.3679 5.77106 9.67926 6.47107 8.40744 7.74192C7.13801 9.01302 6.4378 10.7028 6.4378 12.5C6.4378 14.1734 7.05228 15.706 8.06691 16.8844C9.07197 15.0222 11.0202 13.845 13.1661 13.845C15.3144 13.845 17.2602 15.0222 18.2676 16.884ZM8.58609 17.4239C9.43396 15.6725 11.2059 14.5533 13.1661 14.5533C15.1286 14.5533 16.8981 15.6725 17.7484 17.4234C16.5457 18.5428 14.9356 19.2292 13.1661 19.2292C11.3989 19.2292 9.78644 18.5429 8.58609 17.4239ZM13.1661 5.06251C11.1798 5.06251 9.31256 5.83609 7.90734 7.24106C6.50213 8.64577 5.72809 10.5135 5.72809 12.5C5.72809 16.6013 9.06483 19.9378 13.1661 19.9378C17.2674 19.9378 20.6041 16.6013 20.6041 12.5C20.6041 8.399 17.2673 5.06251 13.1661 5.06251ZM24.9578 13.7147V11.2856C24.9578 11.041 24.7601 10.8419 24.5148 10.8419C23.262 10.8419 22.1855 10.1221 21.7044 8.96323C21.2256 7.80427 21.4781 6.53392 22.3641 5.64839C22.5356 5.47547 22.5356 5.19399 22.3641 5.02106L20.6445 3.3034C20.4731 3.13047 20.192 3.13027 20.0181 3.3034C19.1322 4.18893 17.8627 4.4409 16.7029 3.96099C15.5454 3.48083 14.8237 2.40456 14.8237 1.15228C14.8237 0.907694 14.626 0.708554 14.3807 0.708554H11.9514C11.7085 0.708554 11.5084 0.907643 11.5084 1.15228C11.5084 2.40456 10.7891 3.48088 9.62926 3.96099C8.47177 4.4409 7.19995 4.18893 6.31397 3.3034C6.14246 3.13047 5.86144 3.13027 5.6876 3.3034L3.97039 5.02106C3.88704 5.10492 3.83942 5.2161 3.83942 5.33473C3.83942 5.45335 3.88704 5.56479 3.97039 5.64839C4.85637 6.53392 5.10647 7.80427 4.62773 8.96323C4.1466 10.1221 3.07008 10.8419 1.81973 10.8419C1.57443 10.8419 1.37438 11.041 1.37438 11.2856V13.7147C1.37438 13.9592 1.57443 14.1581 1.81973 14.1581C3.07013 14.1581 4.14666 14.8779 4.62773 16.0368C5.10642 17.1957 4.85637 18.4661 3.97039 19.3516C3.88704 19.4357 3.83942 19.5469 3.83942 19.6655C3.83942 19.7836 3.88704 19.8951 3.97039 19.9792L5.6876 21.6969C5.86144 21.8698 6.14251 21.8698 6.31397 21.6969C6.90461 21.1071 7.66437 20.798 8.44798 20.798C8.84095 20.798 9.2411 20.8764 9.63169 21.0374C10.7892 21.5171 11.5085 22.5941 11.5085 23.848C11.5085 24.0926 11.7085 24.2915 11.9514 24.2915H14.3807C14.6261 24.2915 14.8238 24.0926 14.8238 23.848C14.8238 22.5955 15.5454 21.5192 16.7029 21.0393C17.8628 20.5592 19.1322 20.8111 20.0182 21.6969C20.1897 21.8698 20.4731 21.8698 20.6446 21.6969L22.3642 19.9792C22.5356 19.8061 22.5356 19.5248 22.3642 19.3517C21.4782 18.4662 21.2257 17.1958 21.7044 16.0368C22.1856 14.8779 23.2621 14.1582 24.5148 14.1582C24.7601 14.1582 24.9578 13.9593 24.9578 13.7147ZM24.5148 10.1336C23.555 10.1336 22.7286 9.58124 22.3594 8.69197C21.9926 7.8029 22.1855 6.82851 22.8643 6.14951C23.3145 5.70006 23.3145 4.96914 22.8643 4.5202L21.1471 2.80228C20.6969 2.35334 19.9658 2.35334 19.518 2.80228C18.8369 3.48154 17.8628 3.6747 16.9744 3.30648C16.0861 2.93801 15.5335 2.11255 15.5335 1.15223C15.5335 0.516803 15.0167 0 14.3807 0H11.9514C11.3179 0 10.8011 0.516803 10.8011 1.15228C10.8011 2.11255 10.2485 2.93806 9.35775 3.30654C8.46939 3.67475 7.4953 3.48159 6.8165 2.80233C6.36635 2.3534 5.63517 2.3534 5.18502 2.80233L3.47024 4.51995C3.25111 4.73766 3.13203 5.02698 3.13203 5.33473C3.13203 5.64242 3.25111 5.93179 3.46786 6.14951C4.14666 6.82851 4.34195 7.80285 3.97277 8.69197C3.60359 9.5813 2.77955 10.1336 1.81973 10.1336C1.18385 10.1336 0.666992 10.6504 0.666992 11.2856V13.7147C0.666992 14.3499 1.18385 14.8669 1.81973 14.8669C2.77955 14.8669 3.60359 15.419 3.97277 16.3081C4.34195 17.1972 4.14666 18.1715 3.47024 18.8507C3.25111 19.0682 3.13203 19.3576 3.13203 19.6655C3.13203 19.973 3.25111 20.2626 3.46786 20.4801L5.18507 22.1977C5.63522 22.6467 6.3664 22.6467 6.81655 22.1977C7.49535 21.5178 8.47182 21.3239 9.36018 21.6916C10.2485 22.06 10.8011 22.886 10.8011 23.848C10.8011 24.4831 11.3179 25 11.9515 25H14.3808C15.0167 25 15.5335 24.4831 15.5335 23.848C15.5335 22.8877 16.0861 22.0622 16.9745 21.6937C17.8628 21.3252 18.837 21.5184 19.5181 22.1977C19.9659 22.6466 20.697 22.6466 21.1471 22.1977L22.8644 20.48C23.3145 20.0308 23.3145 19.2999 22.8644 18.8507C22.1856 18.1714 21.9926 17.1971 22.3594 16.308C22.7286 15.419 23.555 14.8669 24.5149 14.8669C25.1508 14.8669 25.6676 14.3498 25.6676 13.7146V11.2855C25.6676 10.6504 25.1507 10.1336 24.5148 10.1336Z" fill="#F1B82D"/>
</svg>
