<svg width="21" height="13" viewBox="0 0 21 13" fill="none" xmlns="http://www.w3.org/2000/svg">
<path d="M11.9985 2.50186C11.9985 2.32509 12.0688 2.15556 12.1938 2.03056C12.3188 1.90556 12.4883 1.83534 12.6651 1.83534H19.9968C20.1736 1.83534 20.3431 1.90556 20.4681 2.03056C20.5931 2.15556 20.6633 2.32509 20.6633 2.50186C20.6633 2.67863 20.5931 2.84816 20.4681 2.97316C20.3431 3.09816 20.1736 3.16838 19.9968 3.16838H12.6651C12.4883 3.16838 12.3188 3.09816 12.1938 2.97316C12.0688 2.84816 11.9985 2.67863 11.9985 2.50186ZM19.9968 5.83446H12.6651C12.4883 5.83446 12.3188 5.90469 12.1938 6.02968C12.0688 6.15468 11.9985 6.32421 11.9985 6.50098C11.9985 6.67776 12.0688 6.84729 12.1938 6.97229C12.3188 7.09728 12.4883 7.16751 12.6651 7.16751H19.9968C20.1736 7.16751 20.3431 7.09728 20.4681 6.97229C20.5931 6.84729 20.6633 6.67776 20.6633 6.50098C20.6633 6.32421 20.5931 6.15468 20.4681 6.02968C20.3431 5.90469 20.1736 5.83446 19.9968 5.83446ZM19.9968 9.83359H14.6646C14.4878 9.83359 14.3183 9.90381 14.1933 10.0288C14.0683 10.1538 13.9981 10.3233 13.9981 10.5001C13.9981 10.6769 14.0683 10.8464 14.1933 10.9714C14.3183 11.0964 14.4878 11.1666 14.6646 11.1666H19.9968C20.1736 11.1666 20.3431 11.0964 20.4681 10.9714C20.5931 10.8464 20.6633 10.6769 20.6633 10.5001C20.6633 10.3233 20.5931 10.1538 20.4681 10.0288C20.3431 9.90381 20.1736 9.83359 19.9968 9.83359ZM11.9777 11.6665C11.9995 11.7513 12.0044 11.8396 11.992 11.9262C11.9797 12.0129 11.9504 12.0963 11.9059 12.1717C11.8613 12.247 11.8023 12.3129 11.7323 12.3654C11.6623 12.418 11.5826 12.4563 11.4978 12.478C11.4435 12.4926 11.3874 12.4999 11.3312 12.4997C11.1834 12.4997 11.0397 12.4507 10.9228 12.3602C10.8059 12.2697 10.7224 12.1429 10.6855 11.9998C10.1723 10.0052 8.15771 8.50055 5.99901 8.50055C3.84032 8.50055 1.82576 10.0044 1.31254 11.9998C1.26835 12.171 1.15794 12.3177 1.0056 12.4075C0.853256 12.4974 0.671466 12.523 0.500218 12.4788C0.32897 12.4347 0.182291 12.3242 0.0924495 12.1719C0.00260798 12.0196 -0.0230371 11.8378 0.021156 11.6665C0.486887 9.85775 1.84076 8.39307 3.55872 7.6674C2.89722 7.15789 2.41179 6.45412 2.17051 5.65477C1.92922 4.85542 1.94418 4.0006 2.2133 3.21019C2.48241 2.41978 2.99217 1.73343 3.6711 1.24739C4.35002 0.761347 5.16405 0.5 5.99901 0.5C6.83398 0.5 7.64801 0.761347 8.32693 1.24739C9.00585 1.73343 9.51562 2.41978 9.78473 3.21019C10.0538 4.0006 10.0688 4.85542 9.82753 5.65477C9.58624 6.45412 9.10081 7.15789 8.43931 7.6674C10.1581 8.39307 11.512 9.85775 11.9777 11.6665ZM5.99985 7.16751C6.52715 7.16751 7.04261 7.01114 7.48104 6.71819C7.91948 6.42524 8.2612 6.00885 8.46299 5.52169C8.66478 5.03452 8.71757 4.49846 8.6147 3.98129C8.51183 3.46413 8.25791 2.98907 7.88505 2.61622C7.5122 2.24336 7.03714 1.98944 6.51998 1.88657C6.00281 1.78369 5.46674 1.83649 4.97958 2.03828C4.49242 2.24007 4.07603 2.58179 3.78308 3.02023C3.49013 3.45866 3.33376 3.97412 3.33376 4.50142C3.33376 5.20851 3.61465 5.88664 4.11464 6.38663C4.61463 6.88661 5.29276 7.16751 5.99985 7.16751Z" fill="#202224"/>
</svg>
