<svg width="187" height="159" viewBox="0 0 187 159" fill="none" xmlns="http://www.w3.org/2000/svg">
<path d="M117.641 21.6226C115.879 25.2736 112.636 27.9916 109.239 30.204C105.635 32.5425 101.761 34.4354 97.7022 35.8411C97.1435 36.0366 96.5792 36.2238 96.0149 36.3998H71.8575C71.701 36.221 71.5502 36.0338 71.4049 35.8411C69.8882 33.8354 69.0753 31.2962 69.3797 28.8073C69.7792 25.5446 72.257 22.5445 75.4721 21.8489C78.6874 21.1561 82.3523 23.0752 83.3273 26.215C83.8664 20.1617 84.4865 13.8542 87.7045 8.69752C90.6181 4.02973 95.6686 0.688806 101.138 0.0910153C104.355 -0.244034 107.601 0.350223 110.49 1.80336C110.756 1.93744 111.018 2.07712 111.275 2.22237C113.009 3.20564 114.54 4.51123 115.784 6.0689C119.195 10.3875 120.03 16.6643 117.641 21.6226Z" fill="#F2F2F2"/>
<path d="M111.275 2.22238C111.282 2.2957 111.27 2.36952 111.239 2.4366C111.209 2.50369 111.162 2.56175 111.102 2.60509C100.162 11.5145 91.5083 22.9097 85.8639 35.8411C85.78 36.0255 85.6991 36.2126 85.6208 36.3998H84.509C84.5872 36.2126 84.6655 36.0255 84.7465 35.8411C85.8052 33.3717 86.9756 30.9526 88.2578 28.5838C91.0328 23.4694 94.2977 18.6365 98.0068 14.1531C101.715 9.66417 105.858 5.55193 110.373 1.87601C110.409 1.84685 110.449 1.82244 110.491 1.80339C110.569 1.76957 110.654 1.75386 110.74 1.75743C110.825 1.761 110.908 1.78375 110.984 1.824C111.059 1.86425 111.125 1.92096 111.175 1.98993C111.226 2.0589 111.26 2.13835 111.275 2.22238Z" fill="white"/>
<path d="M111.736 35.8411H5.30748C4.39077 35.84 3.4896 36.0778 2.69275 36.531C2.50189 36.6394 2.31811 36.7597 2.14253 36.8914C1.47767 37.3843 0.937554 38.0261 0.565486 38.7654C0.193417 39.5047 -0.000254549 40.3209 2.51091e-07 41.1486V96.4581C0.00125103 97.8654 0.560832 99.2146 1.55591 100.21C2.55098 101.205 3.90023 101.764 5.30748 101.766H111.736C113.144 101.764 114.493 101.205 115.488 100.21C116.483 99.2146 117.043 97.8654 117.044 96.4581V41.1486C117.043 39.7413 116.483 38.3921 115.488 37.397C114.493 36.4019 113.144 35.8423 111.736 35.8411ZM116.485 96.4581C116.483 97.717 115.983 98.9238 115.092 99.814C114.202 100.704 112.995 101.205 111.736 101.207H5.30748C4.04857 101.205 2.84173 100.704 1.95154 99.814C1.06136 98.9239 0.560464 97.717 0.558683 96.4581V41.1486C0.562649 40.145 0.882708 39.1681 1.4734 38.3568C2.0641 37.5454 2.89541 36.9408 3.84926 36.6288C3.88841 36.6176 3.92468 36.6037 3.96384 36.5925C4.40018 36.4642 4.85268 36.3993 5.30748 36.3998H111.736C112.995 36.4016 114.202 36.9024 115.092 37.7926C115.983 38.6828 116.483 39.8896 116.485 41.1486V96.4581Z" fill="#3F3D56"/>
<path d="M150.067 107.987C150.435 107.748 150.745 107.43 150.977 107.058C151.209 106.685 151.356 106.266 151.408 105.831C151.461 105.395 151.417 104.954 151.28 104.537C151.143 104.12 150.916 103.738 150.616 103.418L152.284 83.5264L147.506 84.052L146.197 103.413C145.693 103.953 145.405 104.659 145.387 105.397C145.37 106.136 145.623 106.855 146.1 107.419C146.577 107.983 147.245 108.352 147.976 108.457C148.707 108.562 149.451 108.394 150.067 107.987Z" fill="#FFB8B8"/>
<path d="M133.06 155.433L129.636 155.433L128.007 142.224L133.061 142.224L133.06 155.433Z" fill="#FFB8B8"/>
<path d="M127.19 154.455H133.794V158.613H123.031C123.031 158.067 123.139 157.526 123.348 157.022C123.557 156.517 123.863 156.059 124.249 155.673C124.635 155.287 125.094 154.98 125.598 154.771C126.103 154.562 126.644 154.455 127.19 154.455Z" fill="#2F2E41"/>
<path d="M157.363 155.433L153.939 155.433L152.31 142.224L157.364 142.224L157.363 155.433Z" fill="#FFB8B8"/>
<path d="M151.492 154.455H158.097V158.613H147.334C147.334 157.51 147.772 156.453 148.552 155.673C149.332 154.893 150.389 154.455 151.492 154.455Z" fill="#2F2E41"/>
<path d="M133.118 147.252C133.081 147.252 133.044 147.25 133.006 147.247L128.159 146.86C127.967 146.844 127.78 146.789 127.61 146.698C127.44 146.607 127.291 146.481 127.172 146.33C127.053 146.178 126.966 146.003 126.918 145.816C126.87 145.629 126.861 145.435 126.892 145.244L134.241 99.79L134.733 93.3788C134.755 93.0791 134.873 92.7945 135.07 92.5678C135.268 92.3411 135.533 92.1845 135.827 92.1215L143.219 90.5046C143.49 90.4439 143.774 90.4663 144.033 90.569C144.292 90.6716 144.514 90.8498 144.67 91.0802L146.472 93.7146C147.18 94.7387 147.949 95.719 148.775 96.6501C150.054 98.1066 152.228 101.34 152.424 106.633C152.476 108.371 152.656 110.103 152.964 111.815L158.915 143.873C158.945 144.061 158.936 144.253 158.889 144.437C158.842 144.622 158.758 144.795 158.642 144.946C158.526 145.096 158.38 145.222 158.214 145.314C158.048 145.407 157.864 145.464 157.675 145.483L153.08 145.831C152.751 145.864 152.422 145.778 152.15 145.59C151.879 145.401 151.683 145.123 151.599 144.803L143.449 114.494C143.433 114.435 143.397 114.383 143.349 114.345C143.3 114.308 143.24 114.288 143.178 114.288C143.117 114.288 143.057 114.308 143.008 114.346C142.96 114.383 142.925 114.436 142.909 114.495L134.467 146.215C134.388 146.512 134.213 146.775 133.969 146.962C133.725 147.15 133.426 147.252 133.118 147.252Z" fill="#2F2E41"/>
<path d="M146.008 69.9051C149.797 69.9051 152.869 66.8334 152.869 63.0442C152.869 59.255 149.797 56.1833 146.008 56.1833C142.219 56.1833 139.147 59.255 139.147 63.0442C139.147 66.8334 142.219 69.9051 146.008 69.9051Z" fill="#FFB8B8"/>
<path d="M134.379 94.4103L134.237 84.6126C133.714 78.3463 136.49 75.0561 138.91 73.4011C139.534 72.9798 140.237 72.6896 140.977 72.548C141.716 72.4064 142.477 72.4165 143.212 72.5775L148.612 73.7448C149.364 73.9086 150.075 74.2233 150.701 74.6696C151.328 75.116 151.858 75.6849 152.259 76.3418C152.642 76.9616 152.894 77.6537 152.998 78.3749C153.102 79.0961 153.057 79.8311 152.866 80.5341C152.49 81.85 151.659 82.9892 150.519 83.7471C145.88 87.0222 145.553 92.5237 145.55 92.5791L145.544 92.6928L134.379 94.4103Z" fill="#F1B82D"/>
<path d="M151.277 87.1247H146.528C146.195 87.1244 145.875 86.9918 145.64 86.7561C145.404 86.5205 145.271 86.201 145.271 85.8677V77.6271C145.271 76.664 145.654 75.7403 146.335 75.0593C147.016 74.3783 147.939 73.9957 148.902 73.9957C149.866 73.9957 150.789 74.3783 151.47 75.0593C152.151 75.7403 152.534 76.664 152.534 77.6271V85.8677C152.533 86.201 152.401 86.5205 152.165 86.7561C151.93 86.9918 151.61 87.1244 151.277 87.1247Z" fill="#F1B82D"/>
<path d="M119.393 88.6816C119.113 89.0155 118.766 89.2863 118.374 89.4763C117.982 89.6662 117.554 89.771 117.119 89.7836C116.684 89.7961 116.25 89.7163 115.848 89.5494C115.446 89.3824 115.084 89.1321 114.785 88.8149C112.079 85.9771 116.502 81.716 119.218 84.5599C119.314 84.658 119.403 84.7625 119.484 84.8728L133.18 84.5324L134.815 81.5425L139.839 83.4933C138.874 84.989 137.767 90.8594 135.244 90.5737C134.913 90.5825 119.731 88.7057 119.393 88.6816Z" fill="#FFB8B8"/>
<path d="M137.714 86.4193L133.886 83.6097C133.618 83.4122 133.438 83.1163 133.388 82.7869C133.337 82.4575 133.419 82.1215 133.616 81.8526L138.492 75.2091C138.774 74.8246 139.129 74.4995 139.537 74.2523C139.945 74.005 140.397 73.8405 140.869 73.7682C141.34 73.6958 141.821 73.7171 142.284 73.8306C142.747 73.9442 143.184 74.1478 143.568 74.43C143.953 74.7121 144.278 75.0672 144.525 75.475C144.772 75.8828 144.937 76.3353 145.009 76.8067C145.081 77.2781 145.06 77.7591 144.947 78.2222C144.833 78.6854 144.629 79.1217 144.347 79.5061L139.472 86.1496C139.274 86.4181 138.978 86.5973 138.649 86.6478C138.319 86.6984 137.983 86.6162 137.714 86.4193Z" fill="#F1B82D"/>
<path d="M147.382 66.6104C147.604 66.1484 147.68 65.6305 147.603 65.1242C147.525 64.6179 147.296 64.1468 146.946 63.7726C145.656 62.4712 143.639 63.3392 141.895 63.2118C138.989 62.9996 137.01 59.5348 137.878 56.7536C138.745 53.9724 141.828 52.2466 144.736 52.4296C147.643 52.6125 150.276 54.4111 152.028 56.7384C153.227 54.8079 156.174 54.5828 158.076 55.8272C159.978 57.0716 160.962 59.3458 161.369 61.5819C161.775 63.818 161.709 66.116 162.051 68.3629C162.882 73.8092 166.397 78.9378 171.483 81.0549C176.569 83.172 183.078 81.8114 186.405 77.4205C187.052 82.7415 185.917 88.127 183.178 92.7343C180.438 97.3415 176.249 100.911 171.265 102.884C168.508 103.974 165.465 104.554 162.563 103.947C157.878 102.968 154.235 98.9621 152.647 94.4476C151.059 89.933 151.249 84.9794 152.02 80.2563C152.495 77.3472 153.021 73.9018 150.9 71.8556C150.304 71.36 149.603 71.0066 148.85 70.8225C148.451 70.7026 148.085 70.4932 147.779 70.2102C147.473 69.9272 147.236 69.5782 147.085 69.1896C146.935 68.801 146.875 68.3832 146.91 67.9679C146.946 67.5527 147.075 67.151 147.289 66.7935C147.324 66.7327 147.355 66.6717 147.382 66.6104Z" fill="#2F2E41"/>
<path d="M172.013 158.732H108.323C108.249 158.732 108.178 158.702 108.125 158.65C108.073 158.597 108.043 158.526 108.043 158.452C108.043 158.378 108.073 158.307 108.125 158.255C108.178 158.202 108.249 158.173 108.323 158.173H172.013C172.087 158.173 172.158 158.202 172.21 158.255C172.263 158.307 172.292 158.378 172.292 158.452C172.292 158.526 172.263 158.597 172.21 158.65C172.158 158.702 172.087 158.732 172.013 158.732Z" fill="#3F3D56"/>
<path d="M58.4056 68.7798C57.9817 68.7797 57.5647 68.6722 57.1936 68.4674L1.59262 37.8648C1.52773 37.829 1.47968 37.769 1.45905 37.6978C1.43842 37.6267 1.4469 37.5503 1.48262 37.4854C1.51834 37.4205 1.57839 37.3724 1.64954 37.3518C1.72068 37.3312 1.79711 37.3396 1.86201 37.3754L57.463 67.978C57.7465 68.1345 58.0646 68.218 58.3885 68.2209C58.7124 68.2237 59.0319 68.1459 59.3182 67.9943L115.834 38.1804C115.867 38.1632 115.902 38.1525 115.939 38.1491C115.975 38.1456 116.012 38.1494 116.047 38.1602C116.083 38.171 116.115 38.1887 116.143 38.2121C116.172 38.2355 116.195 38.2643 116.212 38.2968C116.229 38.3293 116.24 38.3648 116.243 38.4014C116.247 38.438 116.243 38.4748 116.232 38.5099C116.221 38.545 116.203 38.5776 116.18 38.6058C116.156 38.634 116.128 38.6573 116.095 38.6744L59.5788 68.4884C59.2173 68.6796 58.8146 68.7796 58.4056 68.7798Z" fill="#3F3D56"/>
<path d="M17.757 87.7985H9.93541C9.34273 87.7985 8.77432 87.5631 8.35523 87.144C7.93613 86.7249 7.70068 86.1565 7.70068 85.5638C7.70068 84.9711 7.93613 84.4027 8.35523 83.9836C8.77432 83.5645 9.34273 83.3291 9.93541 83.3291H17.757C18.3497 83.3291 18.9181 83.5645 19.3372 83.9836C19.7563 84.4027 19.9917 84.9711 19.9917 85.5638C19.9917 86.1565 19.7563 86.7249 19.3372 87.144C18.9181 87.5631 18.3497 87.7985 17.757 87.7985Z" fill="#3F3D56"/>
<path d="M26.9752 95.3407H9.93541C9.34273 95.3407 8.77432 95.1053 8.35523 94.6862C7.93613 94.2671 7.70068 93.6987 7.70068 93.106C7.70068 92.5133 7.93613 91.9449 8.35523 91.5258C8.77432 91.1067 9.34273 90.8713 9.93541 90.8713H26.9752C27.5679 90.8713 28.1363 91.1067 28.5554 91.5258C28.9745 91.9449 29.21 92.5133 29.21 93.106C29.21 93.6987 28.9745 94.2671 28.5554 94.6862C28.1363 95.1053 27.5679 95.3407 26.9752 95.3407Z" fill="#3F3D56"/>
<path d="M58.3835 77.7422C63.3203 77.7422 67.3224 73.7402 67.3224 68.8033C67.3224 63.8665 63.3203 59.8644 58.3835 59.8644C53.4467 59.8644 49.4446 63.8665 49.4446 68.8033C49.4446 73.7402 53.4467 77.7422 58.3835 77.7422Z" fill="#F1B82D"/>
</svg>
