<svg width="22" height="21" viewBox="0 0 22 21" fill="none" xmlns="http://www.w3.org/2000/svg">
<path d="M12.9133 1.52401C12.8086 1.07205 12.5476 0.671605 12.1763 0.393346C11.8051 0.115087 11.3475 -0.0231041 10.8843 0.00315791C10.4211 0.0294199 9.9821 0.218447 9.64471 0.536884C9.30731 0.85532 9.09323 1.2827 9.04025 1.7436C8.98727 2.20451 9.09879 2.66931 9.35514 3.056C9.61148 3.44268 9.99618 3.7264 10.4413 3.85707C10.8865 3.98775 11.3635 3.95699 11.7882 3.77022C12.2129 3.58345 12.5579 3.25267 12.7625 2.83626C14.0077 3.11983 15.1653 3.70205 16.1354 4.53272C17.1055 5.3634 17.8589 6.41758 18.3308 7.60435L19.5314 7.13221C18.9756 5.72458 18.0807 4.47607 16.9261 3.49767C15.7715 2.51927 14.3931 1.84129 12.9133 1.52401ZM11.0045 2.63199C10.9166 2.63481 10.829 2.61994 10.747 2.58825C10.665 2.55656 10.5901 2.50871 10.527 2.44754C10.4638 2.38636 10.4136 2.31311 10.3793 2.23214C10.3449 2.15117 10.3273 2.06413 10.3273 1.9762C10.3273 1.88826 10.3449 1.80122 10.3793 1.72025C10.4136 1.63928 10.4638 1.56603 10.527 1.50486C10.5901 1.44368 10.665 1.39583 10.747 1.36414C10.829 1.33246 10.9166 1.31758 11.0045 1.32041C11.1785 1.32041 11.3454 1.38953 11.4684 1.51258C11.5915 1.63563 11.6606 1.80252 11.6606 1.97653C11.6606 2.15055 11.5915 2.31744 11.4684 2.44049C11.3454 2.56353 11.1785 2.63199 11.0045 2.63199ZM8.11818 3.17718L7.63319 1.97721C6.22555 2.53299 4.97704 3.42796 3.99864 4.58254C3.02025 5.73712 2.34227 7.11556 2.02499 8.59531C1.57302 8.70004 1.17258 8.96106 0.894323 9.33229C0.616064 9.70352 0.477872 10.1611 0.504134 10.6243C0.530396 11.0875 0.719424 11.5265 1.03786 11.8639C1.3563 12.2013 1.78367 12.4154 2.24458 12.4684C2.70548 12.5214 3.17029 12.4098 3.55697 12.1535C3.94366 11.8971 4.22737 11.5125 4.35805 11.0673C4.48873 10.6221 4.45796 10.1451 4.27119 9.72045C4.08442 9.29577 3.75365 8.9507 3.33724 8.74615C3.62197 7.49942 4.20609 6.34081 5.0391 5.3705C5.87211 4.40019 6.92893 3.64738 8.11818 3.17718ZM2.47683 11.1603C2.39067 11.1603 2.30535 11.1433 2.22574 11.1103C2.14614 11.0774 2.07381 11.029 2.01288 10.9681C1.95195 10.9072 1.90362 10.8349 1.87065 10.7553C1.83768 10.6756 1.82071 10.5903 1.82071 10.5042C1.82071 10.418 1.83768 10.3327 1.87065 10.2531C1.90362 10.1735 1.95195 10.1011 2.01288 10.0402C2.07381 9.97929 2.14614 9.93096 2.22574 9.89798C2.30535 9.86501 2.39067 9.84804 2.47683 9.84804C2.65085 9.84804 2.81774 9.91716 2.94079 10.0402C3.06383 10.1633 3.13296 10.3301 3.13296 10.5042C3.13296 10.6782 3.06383 10.8451 2.94079 10.9681C2.81774 11.0912 2.65085 11.1603 2.47683 11.1603ZM11.0045 17.0634C10.6385 17.0646 10.2802 17.1678 9.96964 17.3613C9.6591 17.5549 9.40866 17.8312 9.24645 18.1592C8.001 17.8757 6.84323 17.2934 5.87302 16.4626C4.90281 15.6318 4.1493 14.5774 3.67748 13.3905L2.47751 13.8754C3.0351 15.2855 3.93306 16.5355 5.09127 17.5141C6.24948 18.4926 7.63191 19.1693 9.11522 19.4836C9.20043 19.8448 9.38597 20.1744 9.65044 20.4347C9.91491 20.6949 10.2476 20.8751 10.61 20.9545C10.9725 21.0338 11.35 21.0091 11.699 20.8832C12.048 20.7573 12.3543 20.5353 12.5826 20.2428C12.8109 19.9503 12.9519 19.5993 12.9893 19.2301C13.0268 18.861 12.9591 18.4888 12.7941 18.1565C12.6292 17.8241 12.3736 17.5452 12.057 17.3518C11.7403 17.1584 11.3755 17.0584 11.0045 17.0634ZM11.0045 19.6872C10.8304 19.6872 10.6636 19.6181 10.5405 19.4951C10.4175 19.372 10.3483 19.2051 10.3483 19.0311C10.3483 18.8571 10.4175 18.6902 10.5405 18.5672C10.6636 18.4441 10.8304 18.375 11.0045 18.375C11.1785 18.375 11.3454 18.4441 11.4684 18.5672C11.5915 18.6902 11.6606 18.8571 11.6606 19.0311C11.6606 19.2051 11.5915 19.372 11.4684 19.4951C11.3454 19.6181 11.1785 19.6872 11.0045 19.6872ZM21.4991 10.5035C21.5003 10.1523 21.4075 9.80715 21.2304 9.5039C21.0532 9.20064 20.7982 8.9503 20.4916 8.77886C20.1851 8.60741 19.8383 8.5211 19.4872 8.52887C19.1361 8.53664 18.7934 8.63821 18.4948 8.82305C18.1962 9.00789 17.9524 9.26927 17.7889 9.58006C17.6253 9.89086 17.5479 10.2398 17.5646 10.5906C17.5813 10.9414 17.6916 11.2813 17.884 11.5751C18.0765 11.869 18.344 12.1059 18.6588 12.2615C18.3752 13.5068 17.7929 14.6645 16.9621 15.6345C16.1313 16.6046 15.077 17.358 13.8901 17.8298L14.3757 19.0304C15.7858 18.4729 17.0358 17.5749 18.0144 16.4167C18.9929 15.2585 19.6696 13.876 19.9839 12.3927C20.4109 12.2917 20.7919 12.051 21.0665 11.7087C21.341 11.3664 21.4933 10.9422 21.4991 10.5035ZM19.5307 11.1596C19.3567 11.1596 19.1898 11.0905 19.0668 10.9674C18.9437 10.8444 18.8746 10.6775 18.8746 10.5035C18.8746 10.3295 18.9437 10.1626 19.0668 10.0395C19.1898 9.91649 19.3567 9.84736 19.5307 9.84736C19.7048 9.84736 19.8716 9.91649 19.9947 10.0395C20.1177 10.1626 20.1869 10.3295 20.1869 10.5035C20.1869 10.6775 20.1177 10.8444 19.9947 10.9674C19.8716 11.0905 19.7048 11.1596 19.5307 11.1596Z" fill="black"/>
<path d="M12.8343 10.4122C13.2075 10.0478 13.4636 9.58039 13.5699 9.06973C13.6763 8.55907 13.628 8.02832 13.4312 7.54523C13.2345 7.06215 12.8982 6.64867 12.4654 6.35759C12.0326 6.06651 11.5228 5.91104 11.0012 5.91104C10.4796 5.91104 9.96981 6.06651 9.53697 6.35759C9.10414 6.64867 8.76788 7.06215 8.57114 7.54523C8.37441 8.02832 8.32612 8.55907 8.43245 9.06973C8.53877 9.58039 8.79489 10.0478 9.16809 10.4122C8.72397 10.7124 8.36017 11.1168 8.10853 11.5902C7.85689 12.0635 7.72507 12.5913 7.72461 13.1273V14.4389H14.2839V13.1267C14.2827 12.59 14.15 12.0619 13.8972 11.5885C13.6445 11.1152 13.2795 10.7117 12.8343 10.4122ZM9.69232 8.53511C9.69232 8.36278 9.72626 8.19214 9.79221 8.03293C9.85815 7.87372 9.95481 7.72906 10.0767 7.6072C10.1985 7.48535 10.3432 7.38869 10.5024 7.32274C10.6616 7.2568 10.8322 7.22285 11.0046 7.22285C11.1769 7.22285 11.3475 7.2568 11.5067 7.32274C11.666 7.38869 11.8106 7.48535 11.9325 7.6072C12.0543 7.72906 12.151 7.87372 12.2169 8.03293C12.2829 8.19214 12.3168 8.36278 12.3168 8.53511C12.3168 8.88314 12.1786 9.21692 11.9325 9.46301C11.6864 9.70911 11.3526 9.84736 11.0046 9.84736C10.6565 9.84736 10.3228 9.70911 10.0767 9.46301C9.83057 9.21692 9.69232 8.88314 9.69232 8.53511ZM9.03619 13.1267C9.03134 12.8651 9.07866 12.6053 9.17539 12.3623C9.27211 12.1192 9.4163 11.8979 9.59953 11.7113C9.78277 11.5246 10.0014 11.3763 10.2425 11.2751C10.4837 11.1739 10.7427 11.1218 11.0042 11.1218C11.2658 11.1218 11.5247 11.1739 11.7659 11.2751C12.0071 11.3763 12.2257 11.5246 12.4089 11.7113C12.5922 11.8979 12.7364 12.1192 12.8331 12.3623C12.9298 12.6053 12.9771 12.8651 12.9723 13.1267H9.03619Z" fill="black"/>
</svg>
