<svg width="163" height="158" viewBox="0 0 163 158" fill="none" xmlns="http://www.w3.org/2000/svg">
<path d="M103.418 35.4179H94.7909V108.971C94.7909 110.125 94.5636 111.267 94.122 112.334C93.6804 113.4 93.0331 114.369 92.217 115.185C91.401 116.001 90.4323 116.648 89.3661 117.09C88.2999 117.531 87.1572 117.758 86.0032 117.758H20.0437V117.843C20.0437 118.997 20.271 120.139 20.7126 121.205C21.1542 122.272 21.8015 123.24 22.6176 124.056C23.4336 124.872 24.4023 125.52 25.4685 125.961C26.5347 126.403 27.6774 126.63 28.8314 126.63H103.418C104.572 126.63 105.715 126.403 106.781 125.961C107.847 125.52 108.816 124.872 109.632 124.056C110.448 123.24 111.095 122.272 111.537 121.205C111.979 120.139 112.206 118.997 112.206 117.843V44.2056C112.206 41.875 111.28 39.6398 109.632 37.9918C107.984 36.3437 105.749 35.4179 103.418 35.4179Z" fill="#F2F2F2"/>
<path d="M144.316 152.305C144.469 152.312 144.62 152.272 144.749 152.19C144.879 152.108 144.979 151.989 145.038 151.847C145.097 151.706 145.112 151.551 145.079 151.401C145.047 151.252 144.969 151.116 144.857 151.012L144.806 150.809C144.812 150.793 144.819 150.777 144.826 150.76C144.98 150.397 145.238 150.087 145.567 149.87C145.896 149.652 146.283 149.537 146.677 149.539C147.072 149.54 147.457 149.658 147.785 149.878C148.113 150.098 148.368 150.41 148.52 150.774C149.124 152.229 149.893 153.687 150.082 155.225C150.166 155.905 150.131 156.595 149.978 157.263C151.397 154.167 152.134 150.803 152.139 147.398C152.139 146.544 152.092 145.69 151.997 144.841C151.918 144.145 151.809 143.453 151.67 142.767C150.909 139.044 149.276 135.554 146.905 132.584C145.758 131.958 144.83 130.995 144.246 129.826C144.035 129.405 143.885 128.956 143.802 128.493C143.932 128.51 144.291 126.538 144.193 126.417C144.373 126.143 144.696 126.007 144.893 125.74C145.873 124.411 147.223 124.643 147.928 126.449C149.434 127.209 149.448 128.469 148.525 129.681C147.937 130.452 147.856 131.496 147.34 132.321C147.393 132.389 147.449 132.455 147.502 132.523C148.472 133.77 149.317 135.109 150.026 136.521C149.853 134.939 150.059 133.339 150.626 131.852C151.2 130.467 152.277 129.299 153.225 128.101C153.476 127.78 153.816 127.539 154.204 127.411C154.591 127.283 155.007 127.272 155.401 127.381C155.794 127.489 156.146 127.712 156.413 128.02C156.68 128.329 156.849 128.71 156.9 129.115C156.902 129.132 156.904 129.15 156.906 129.168C156.765 129.247 156.627 129.331 156.492 129.421C156.322 129.534 156.191 129.696 156.115 129.885C156.039 130.074 156.022 130.281 156.066 130.48C156.11 130.679 156.214 130.86 156.362 131C156.511 131.139 156.698 131.23 156.9 131.261L156.92 131.264C156.87 131.772 156.782 132.275 156.655 132.769C157.871 137.473 155.245 139.186 151.496 139.263C151.413 139.306 151.332 139.348 151.25 139.389C151.962 141.406 152.408 143.508 152.578 145.641C152.674 146.899 152.669 148.163 152.561 149.421L152.568 149.376C152.839 147.978 153.585 146.716 154.679 145.804C156.304 144.469 158.6 143.978 160.353 142.905C160.54 142.785 160.756 142.721 160.978 142.721C161.199 142.72 161.416 142.783 161.603 142.902C161.79 143.02 161.939 143.19 162.033 143.391C162.126 143.591 162.16 143.815 162.131 144.034L162.124 144.081C161.863 144.187 161.608 144.31 161.362 144.448C161.221 144.528 161.084 144.612 160.949 144.701C160.779 144.814 160.648 144.976 160.572 145.165C160.496 145.354 160.479 145.562 160.523 145.761C160.567 145.96 160.67 146.141 160.819 146.28C160.968 146.42 161.155 146.511 161.357 146.542L161.377 146.545C161.392 146.547 161.405 146.549 161.42 146.551C160.973 147.618 160.346 148.599 159.567 149.452C158.806 153.559 155.54 153.948 152.045 152.753H152.043C151.66 154.419 151.104 156.04 150.386 157.591H144.465C144.443 157.526 144.424 157.458 144.405 157.392C144.953 157.426 145.504 157.394 146.044 157.294C145.604 156.755 145.165 156.212 144.726 155.673C144.716 155.663 144.707 155.652 144.698 155.641C144.475 155.365 144.25 155.091 144.027 154.816L144.027 154.815C144.015 153.97 144.112 153.126 144.316 152.305L144.316 152.305Z" fill="#F2F2F2"/>
<path d="M79.0987 25.4125C79.3149 25.74 79.5997 26.0167 79.9333 26.2234C80.2669 26.43 80.6414 26.5618 81.031 26.6094C81.4205 26.6571 81.8157 26.6196 82.1893 26.4995C82.5629 26.3794 82.906 26.1796 83.1948 25.9139L95.5053 31.4679L97.8787 28.4405L83.2091 21.9508C82.7257 21.498 82.093 21.2382 81.4308 21.2207C80.7686 21.2033 80.123 21.4293 79.6164 21.856C79.1097 22.2827 78.7772 22.8804 78.6818 23.5359C78.5864 24.1914 78.7347 24.8591 79.0988 25.4125H79.0987Z" fill="#A0616A"/>
<path d="M131.93 28.876L133.151 35.7949C133.208 36.1176 133.197 36.4488 133.118 36.767C133.04 37.0852 132.896 37.3835 132.695 37.6426C132.494 37.9018 132.242 38.1161 131.953 38.2719C131.665 38.4277 131.347 38.5214 131.02 38.5471L110.274 40.1786L85.8872 29.2644L88.7999 23.7352L109.97 30.4391L131.93 28.876Z" fill="#F1B82D"/>
<path d="M83.3745 23.9172H8.78774C3.9344 23.9172 0 27.8516 0 32.705V106.342C0 111.195 3.9344 115.13 8.78774 115.13H83.3745C88.2279 115.13 92.1623 111.195 92.1623 106.342V32.705C92.1623 27.8516 88.2279 23.9172 83.3745 23.9172Z" fill="#F2F2F2"/>
<path d="M8.78791 25.7245C7.87121 25.7245 6.96349 25.905 6.11657 26.2558C5.26965 26.6066 4.50012 27.1208 3.85192 27.769C3.20372 28.4172 2.68953 29.1868 2.33873 30.0337C1.98792 30.8806 1.80737 31.7883 1.80737 32.705V106.342C1.80737 108.193 2.54282 109.969 3.85192 111.278C5.16103 112.587 6.93655 113.323 8.78791 113.323H56.391C60.8512 113.323 65.2678 112.444 69.3885 110.737C73.5092 109.03 77.2534 106.529 80.4072 103.375C83.5611 100.221 86.0629 96.4766 87.7698 92.3559C89.4766 88.2352 90.3551 83.8187 90.3551 79.3584V32.705C90.3551 31.7883 90.1745 30.8806 89.8237 30.0337C89.4729 29.1868 88.9588 28.4172 88.3106 27.769C87.6624 27.1208 86.8928 26.6066 86.0459 26.2558C85.199 25.905 84.2913 25.7245 83.3746 25.7245H8.78791Z" fill="white"/>
<path d="M66.9315 48.0722H25.0676C24.6834 48.0722 24.315 47.9196 24.0434 47.648C23.7717 47.3764 23.6191 47.008 23.6191 46.6238C23.6191 46.2397 23.7717 45.8713 24.0434 45.5996C24.315 45.328 24.6834 45.1754 25.0676 45.1754H66.9315C67.3157 45.1754 67.6841 45.328 67.9557 45.5996C68.2274 45.8713 68.38 46.2397 68.38 46.6238C68.38 47.008 68.2274 47.3764 67.9557 47.648C67.6841 47.9196 67.3157 48.0722 66.9315 48.0722Z" fill="#F2F2F2"/>
<path d="M66.9315 78.9593H25.0676C24.6834 78.9593 24.315 78.8067 24.0434 78.5351C23.7717 78.2635 23.6191 77.895 23.6191 77.5109C23.6191 77.1268 23.7717 76.7583 24.0434 76.4867C24.315 76.2151 24.6834 76.0625 25.0676 76.0625H66.9315C67.3157 76.0625 67.6841 76.2151 67.9557 76.4867C68.2274 76.7583 68.38 77.1268 68.38 77.5109C68.38 77.895 68.2274 78.2635 67.9557 78.5351C67.6841 78.8067 67.3157 78.9593 66.9315 78.9593Z" fill="#F2F2F2"/>
<path d="M83.9315 63.5257H8.06731C7.68317 63.5257 7.31476 63.3731 7.04313 63.1014C6.7715 62.8298 6.6189 62.4614 6.6189 62.0772C6.6189 61.6931 6.7715 61.3247 7.04313 61.0531C7.31476 60.7814 7.68317 60.6288 8.06731 60.6288H83.9315C84.3156 60.6288 84.684 60.7814 84.9557 61.0531C85.2273 61.3247 85.3799 61.6931 85.3799 62.0772C85.3799 62.4614 85.2273 62.8298 84.9557 63.1014C84.684 63.3731 84.3156 63.5257 83.9315 63.5257Z" fill="#F2F2F2"/>
<path d="M129.309 59.3714L121.751 75.4721L150.824 72.5277L144.755 57.0713L129.309 59.3714Z" fill="#A0616A"/>
<path d="M136.068 151.912L133.312 151.889L132.092 141.009L136.159 141.043L136.068 151.912Z" fill="#A0616A"/>
<path d="M127.239 156.295C127.236 156.622 127.364 156.936 127.593 157.169C127.822 157.402 128.134 157.535 128.461 157.538L133.941 157.584L134.9 155.639L135.253 157.594L137.321 157.613L136.798 150.641L136.079 150.593L133.145 150.391L132.198 150.328L132.181 152.3L127.779 155.286C127.614 155.398 127.479 155.548 127.385 155.724C127.29 155.9 127.24 156.096 127.239 156.295Z" fill="#2F2E41"/>
<path d="M105.563 151.925L102.935 151.092L104.965 140.334L108.844 141.562L105.563 151.925Z" fill="#A0616A"/>
<path d="M95.836 153.52C95.7377 153.832 95.767 154.169 95.9174 154.46C96.0679 154.75 96.3273 154.968 96.6387 155.067L101.864 156.721L103.352 155.144L103.115 157.116L105.086 157.742L106.635 150.924L105.961 150.667L103.216 149.612L102.329 149.273L101.734 151.153L96.6486 152.714C96.4581 152.773 96.2846 152.877 96.1431 153.017C96.0015 153.157 95.8962 153.33 95.836 153.52Z" fill="#2F2E41"/>
<path d="M149.499 67.9999L123.066 72.8435C123.066 72.8435 118.826 76.015 119.96 77.1508C121.094 78.2866 121.27 78.1107 120.525 78.8558C119.78 79.601 118.169 80.5971 118.153 81.2491C118.137 81.9011 106.308 111.145 106.308 111.145C106.308 111.145 107.622 110.488 106.636 111.474C105.651 112.46 105.651 113.274 105.651 113.274L101.05 144.332L108.521 144.772L115.837 116.457L132.154 90.0045C132.154 90.0045 133.773 113.593 133.841 115.162C133.909 116.731 134.895 114.76 133.909 116.731C132.923 118.703 132.266 117.388 132.923 118.703C133.58 120.017 130.556 146.775 130.556 146.775H137.375L152 91.3129C152 91.3129 157.204 75.4568 149.499 67.9999Z" fill="#2F2E41"/>
<path d="M141.712 23.6367L131.124 22.5365L128.38 26.0981L125.185 27.8002C123.832 28.5206 122.716 29.6152 121.969 30.9533C121.222 32.2913 120.877 33.8161 120.974 35.3454L124.709 57.0712C124.709 57.0712 121.554 64.1749 123.723 65.943C125.892 67.7111 122.046 72.0899 126.68 69.886C131.314 67.6822 151.324 70.2146 151.324 70.2146L147.052 58.0569L150.244 46.1103L150.595 36.0933C150.66 34.2214 150.105 32.3805 149.015 30.8573C147.925 29.3342 146.362 28.2145 144.569 27.6727L144.122 27.5378L141.712 23.6367Z" fill="#F1B82D"/>
<path d="M156.29 15.5192C156.359 18.5038 155.244 21.3937 153.641 23.932C153.165 22.4502 152.309 21.1015 151.417 19.8159C151.867 22.5971 151.388 25.4491 150.053 27.9305C150.006 27.9641 149.957 27.9954 149.907 28.0241C148.601 28.8097 146.945 29.128 145.532 28.5605C148.452 25.4137 148.823 20.2 146.376 16.6704C145.683 15.6689 144.787 14.7831 144.357 13.6433C143.68 11.8248 144.331 9.82247 144.742 7.92643C145.126 6.16178 145.194 4.06184 144.01 2.76858C144.136 2.58785 144.308 2.44399 144.509 2.35173C144.709 2.25948 144.93 2.22216 145.15 2.24359C145.88 2.34669 146.411 2.98115 146.75 3.6346C147.088 4.28803 147.311 5.01225 147.783 5.57665C148.656 6.63306 150.143 6.88282 151.397 7.43957C154.432 8.79157 156.217 12.1982 156.29 15.5192Z" fill="#2F2E41"/>
<path d="M78.0894 157.609C78.0892 157.66 78.0992 157.711 78.1188 157.759C78.1384 157.806 78.1672 157.849 78.2036 157.886C78.2399 157.922 78.2831 157.951 78.3306 157.971C78.3781 157.99 78.429 158 78.4804 158H161.708C161.812 158 161.911 157.959 161.984 157.885C162.058 157.812 162.099 157.713 162.099 157.609C162.099 157.505 162.058 157.406 161.984 157.332C161.911 157.259 161.812 157.218 161.708 157.218H78.4804C78.429 157.218 78.3781 157.228 78.3306 157.247C78.2831 157.267 78.2399 157.296 78.2036 157.332C78.1672 157.368 78.1384 157.412 78.1188 157.459C78.0992 157.507 78.0892 157.558 78.0894 157.609Z" fill="#CCCCCC"/>
<path d="M156.946 84.6923C158.579 84.6923 159.903 83.3683 159.903 81.735C159.903 80.1017 158.579 78.7777 156.946 78.7777C155.313 78.7777 153.989 80.1017 153.989 81.735C153.989 83.3683 155.313 84.6923 156.946 84.6923Z" fill="#F1B82D"/>
<path d="M130.739 13.8126C130.913 13.2055 129.717 16.9166 130.294 16.9836C132.922 17.285 136.529 18.8543 138.359 19.5864C138.441 19.5768 138.524 19.5672 138.604 19.5552C138.8 19.5337 138.992 19.5026 139.181 19.4667C143.442 18.6605 145.081 12.1146 145.081 12.0548C145.081 11.7605 144.374 3.67812 143.262 3.55852C142.97 3.52681 142.676 3.51083 142.382 3.51066H139.621C139.05 3.38756 138.471 3.30362 137.888 3.25946H137.883C132.325 2.83598 127.942 6.22371 128.352 10.346C128.354 10.3507 128.359 10.3555 128.362 10.3603C128.481 10.5373 128.585 10.7048 128.677 10.8651C128.767 11.0158 128.842 11.1594 128.907 11.2958C129.414 12.3484 128.111 13.6731 128.975 13.9203C130.123 14.2491 125.955 25.0573 130.5 25.0573C128.289 25.6859 130.261 15.4874 130.739 13.8126Z" fill="#2F2E41"/>
<path d="M135.702 20.1545C139.312 20.1545 142.238 17.2279 142.238 13.6178C142.238 10.0076 139.312 7.08105 135.702 7.08105C132.091 7.08105 129.165 10.0076 129.165 13.6178C129.165 17.2279 132.091 20.1545 135.702 20.1545Z" fill="#A0616A"/>
<path d="M128.352 10.7027C128.461 10.7601 128.568 10.8127 128.677 10.8654C128.791 10.9204 128.905 10.9754 129.019 11.0257C131.208 12.0185 132.989 12.1286 134.07 10.7027C134.099 9.95239 134.268 9.21407 134.567 8.52552C134.514 9.29498 134.717 10.0604 135.144 10.7027H137.321C139.563 12.1908 140.714 12.3463 139.158 17.2317C138.724 18.593 136.999 26.5145 137.678 27.6892C137.874 27.6677 139.963 18.9912 140.152 18.9553C144.413 18.1491 147.121 11.1285 146.774 10.7314C146.776 9.602 146.516 8.48754 146.016 7.47523C145.382 6.19269 144.395 5.11839 143.17 4.37938C142.44 4.02539 141.679 3.73947 140.896 3.52526C140.877 3.52047 140.86 3.51568 140.841 3.51091C140.601 3.4463 140.356 3.38649 140.111 3.33625C139.605 3.22946 139.094 3.15197 138.579 3.10418C138.543 3.10179 138.506 3.09939 138.472 3.09939C138.267 3.09987 138.065 3.15521 137.888 3.2597C137.886 3.2597 137.886 3.26208 137.883 3.26208C137.757 3.33598 137.646 3.4344 137.558 3.55156C137.404 3.7487 137.32 3.99234 137.321 4.24299H134.897C134.807 4.24299 134.718 4.24538 134.628 4.25016C133.01 4.30545 131.471 4.96245 130.312 6.09259C129.153 7.22273 128.458 8.74467 128.362 10.3606C128.355 10.4754 128.352 10.5878 128.352 10.7027Z" fill="#2F2E41"/>
<path d="M142.645 8.6129C145.024 8.6129 146.952 6.68483 146.952 4.30645C146.952 1.92806 145.024 0 142.645 0C140.267 0 138.339 1.92806 138.339 4.30645C138.339 6.68483 140.267 8.6129 142.645 8.6129Z" fill="#2F2E41"/>
<path d="M156.979 82.9546C157.189 82.6232 157.325 82.2501 157.377 81.8611C157.428 81.4721 157.395 81.0765 157.279 80.7016C157.163 80.3267 156.967 79.9816 156.704 79.69C156.441 79.3984 156.118 79.1674 155.758 79.0128L155.779 65.5075L152.045 64.5832L152.137 80.6239C151.922 81.2504 151.944 81.9341 152.2 82.5452C152.455 83.1564 152.926 83.6527 153.523 83.94C154.12 84.2273 154.801 84.2857 155.438 84.1041C156.075 83.9224 156.623 83.5135 156.979 82.9546V82.9546Z" fill="#A0616A"/>
<path d="M138.487 33.344L144.298 29.395C144.569 29.2107 144.876 29.0852 145.198 29.0265C145.521 28.9678 145.852 28.9771 146.171 29.0539C146.489 29.1308 146.788 29.2734 147.049 29.4726C147.309 29.6718 147.525 29.9233 147.682 30.2108L157.672 48.4666L157.71 75.1841L151.473 74.7932L148.913 52.7354L138.487 33.344Z" fill="#F1B82D"/>
<path d="M93.8592 93.9352H31.7564C30.4056 93.9352 29.1102 94.4718 28.1551 95.427C27.1999 96.3821 26.6633 97.6775 26.6633 99.0283C26.6633 100.379 27.1999 101.675 28.1551 102.63C29.1102 103.585 30.4056 104.121 31.7564 104.121H93.8592C95.21 104.121 96.5054 103.585 97.4606 102.63C98.4157 101.675 98.9523 100.379 98.9523 99.0283C98.9523 97.6775 98.4157 96.3821 97.4606 95.427C96.5054 94.4718 95.21 93.9352 93.8592 93.9352Z" fill="white"/>
<path d="M93.8594 104.45H31.7566C30.3187 104.45 28.9397 103.879 27.9229 102.862C26.9062 101.845 26.335 100.466 26.335 99.0285C26.335 97.5906 26.9062 96.2116 27.9229 95.1948C28.9397 94.1781 30.3187 93.6068 31.7566 93.6068H93.8594C95.2973 93.6068 96.6764 94.1781 97.6931 95.1948C98.7099 96.2116 99.2811 97.5906 99.2811 99.0285C99.2811 100.466 98.7099 101.845 97.6931 102.862C96.6764 103.879 95.2973 104.45 93.8594 104.45ZM31.7566 94.264C30.493 94.264 29.2811 94.766 28.3876 95.6595C27.4941 96.553 26.9921 97.7649 26.9921 99.0285C26.9921 100.292 27.4941 101.504 28.3876 102.398C29.2811 103.291 30.493 103.793 31.7566 103.793H93.8594C95.123 103.793 96.3349 103.291 97.2284 102.398C98.122 101.504 98.6239 100.292 98.6239 99.0285C98.6239 97.7649 98.122 96.553 97.2284 95.6595C96.3349 94.766 95.123 94.264 93.8594 94.264H31.7566Z" fill="#F1B82D"/>
<path d="M97.5209 116.162H70.1147C69.7305 116.162 69.3621 116.009 69.0905 115.738C68.8189 115.466 68.6663 115.098 68.6663 114.713C68.6663 114.329 68.8189 113.961 69.0905 113.689C69.3621 113.418 69.7305 113.265 70.1147 113.265H97.5209C97.905 113.265 98.2734 113.418 98.545 113.689C98.8167 113.961 98.9693 114.329 98.9693 114.713C98.9693 115.098 98.8167 115.466 98.545 115.738C98.2734 116.009 97.905 116.162 97.5209 116.162Z" fill="#F1B82D"/>
</svg>
